<svg xmlns="http://www.w3.org/2000/svg" viewBox="0 0 581 591.94"><defs><style>.cls-1{fill:#787878;}.cls-2{fill:#b4b4b4;}.cls-3{fill:#a0a0a0;}.cls-4{fill:none;}</style></defs><g id="Layer_2" data-name="Layer 2"><g id="svg2848"><path class="cls-1" d="M141.82,43.35a294.19,294.19,0,0,0-78,69.14,268.31,268.31,0,0,0,34.91-4.68A319.13,319.13,0,0,1,141.82,43.35Z"/><path class="cls-2" d="M242.71,27.53A267.39,267.39,0,0,0,264,1.7a294,294,0,0,0-95.56,27.23A319.21,319.21,0,0,1,242.71,27.53Z"/><path class="cls-1" d="M169.36,82.92,155.49,57.33a298.84,298.84,0,0,0-31.13,44A272.46,272.46,0,0,0,169.36,82.92Z"/><path class="cls-3" d="M172.87,48,186.59,73.3a270.52,270.52,0,0,0,37.28-27.49A299.69,299.69,0,0,0,172.87,48Z"/><path class="cls-2" d="M424.68,29.43A297.72,297.72,0,0,0,289,.08a290,290,0,0,1-22.72,30.68A318.76,318.76,0,0,1,393.36,82.94,424.15,424.15,0,0,0,424.68,29.43Z"/><path class="cls-1" d="M64.53,265.18A318.67,318.67,0,0,1,88.7,129.63a289.36,289.36,0,0,1-39.65,3.19A297.47,297.47,0,0,0,1.86,263.3,423.76,423.76,0,0,0,64.53,265.18Z"/><path class="cls-3" d="M331,139h10.54a105.1,105.1,0,0,1,37.09-36c1.08-1.37,2.17-2.74,3.22-4.13A298.84,298.84,0,0,0,250.26,48.06,288.67,288.67,0,0,1,196,90.6l58,107A80.11,80.11,0,0,1,331,139Z"/><path class="cls-1" d="M84.07,263.85A421.54,421.54,0,0,0,242,217L178.76,100.27a289.83,289.83,0,0,1-66.84,24.85A298.53,298.53,0,0,0,84.07,263.85Z"/><path class="cls-2" d="M520.46,139H531a79.44,79.44,0,0,1,17,1.84A293.84,293.84,0,0,0,442.14,38.63a444.61,444.61,0,0,1-30.26,52.11A104.91,104.91,0,0,1,520.46,139Z"/><path class="cls-1" d="M102.13,401A312.43,312.43,0,0,1,66,284.86,444.26,444.26,0,0,1,.3,282.94,294.17,294.17,0,0,0,32.83,431.37,585.76,585.76,0,0,0,118,427.11Q109.51,414.54,102.13,401Z"/><path class="cls-1" d="M85.52,283.47a293.88,293.88,0,0,0,33.9,108.14A298.29,298.29,0,0,0,139.78,424,585.23,585.23,0,0,0,251,394.46V234.54A440.55,440.55,0,0,1,85.52,283.47Z"/><path class="cls-1" d="M131.15,445.22a606.79,606.79,0,0,1-87.15,6A294.32,294.32,0,0,0,165.41,561.51a726.54,726.54,0,0,0,90.07-21.17A313.62,313.62,0,0,1,131.15,445.22Z"/><path fill="#c55c1b" class="cls-1" d="M251,469V415.48a604.27,604.27,0,0,1-97.46,26.16A295,295,0,0,0,277,527.89,79.79,79.79,0,0,1,251,469Z"/><path class="cls-1" d="M285.42,551.32a746.83,746.83,0,0,1-87.25,23.93,295.25,295.25,0,0,0,225.58-12.34A320.18,320.18,0,0,1,285.42,551.32Z"/><circle class="cls-4" cx="431" cy="193.97" r="25"/><path fill="#c55c1b" d="M441.72,326.22v0a9.22,9.22,0,0,0-13,13l11.93,11.92H395.18a9.24,9.24,0,0,0,0,18.47h45.43l-11.93,11.92a9.22,9.22,0,0,0,13,13L469.41,367a9.17,9.17,0,0,0,0-13Z"/><path fill="#c55c1b" d="M531,169H501.7a75,75,0,0,0-141.4,0H331a50,50,0,0,0-50,50V469a50,50,0,0,0,50,50H531a50,50,0,0,0,50-50V219A50,50,0,0,0,531,169Zm-100,0a25,25,0,1,1-25,25A25,25,0,0,1,431,169ZM542.34,473.84a12.33,12.33,0,0,1-17.43,0l-48.69-48.73a80,80,0,1,1,17.42-17.42l48.7,48.73A12.34,12.34,0,0,1,542.34,473.84Z"/><path fill="#c55c1b" d="M469.41,367l-27.69,27.7a9.22,9.22,0,0,1-13-13l11.93-11.92H395.18a9.24,9.24,0,0,1,0-18.47h45.43L428.68,339.3a9.22,9.22,0,0,1,13-13v0l27.69,27.7A9.17,9.17,0,0,1,469.41,367Z"/></g></g></svg>
