<svg xmlns="http://www.w3.org/2000/svg" viewBox="0 0 976.62 811.24"><defs><style>.cls-1{fill:#548ada;}.cls-2{fill:#9468d8;}.cls-3{fill:#b4b4b4;}</style></defs><g id="Layer_2" data-name="Layer 2"><g id="svg2848"><path class="cls-1" d="M254.37,223.92q39.08,0,61.1,2.28t32.71,12.49q10.67,10.22,12.94,31.34t2.27,58.37q0,12.72,2.73,20.44a45.12,45.12,0,0,0,6.81,13,73.7,73.7,0,0,0,8.63,9.31A96.61,96.61,0,0,1,390.2,380,40.58,40.58,0,0,1,397,391.77q2.72,7.05,2.72,18.4V514.64q0,24.09-.91,38.39t-5.9,21.8q-5,7.5-16.13,10t-31.56,2.5q-20.44,0-31.58-2.5t-16.12-10q-5-7.5-5.91-21.8t-.91-38.39V342q0-16.8-1.81-26.8T282.76,300a18.92,18.92,0,0,0-11.35-6.59,92.06,92.06,0,0,0-17-1.36,108.18,108.18,0,0,0-19.07,1.36A17.14,17.14,0,0,0,224.17,300q-3.87,5.22-5,15.22A248.49,248.49,0,0,0,218,342V541.89q0,13.64-.69,22.49c-.45,5.9-1.81,10.53-4.08,13.86s-5.84,5.67-10.68,7-11.81,2-20.89,2-16.13-.68-21.13-2-8.62-3.71-10.9-7-3.56-8-3.86-13.86-.45-13.4-.45-22.49V342a248.06,248.06,0,0,0-1.14-26.8q-1.14-10-5-15.22a17.22,17.22,0,0,0-11.13-6.59A108.39,108.39,0,0,0,109,292.06a91.08,91.08,0,0,0-17.26,1.36A18.76,18.76,0,0,0,80.63,300q-4.34,5.22-6.14,15.22T72.68,342V541.89q0,13.64-.68,22.49c-.46,5.9-1.82,10.53-4.09,13.86s-5.84,5.67-10.68,7-11.81,2-20.89,2-16.13-.68-21.13-2-8.62-3.71-10.9-7-3.56-8-3.86-13.86S0,551,0,541.89V337.49q0-27.27.45-46.34t3.64-31.57q3.17-12.48,9.54-19.75t18.62-10.68q12.27-3.41,30.89-4.32t45.88-.91Z"/><path class="cls-1" d="M467.1,405.62q0-11.34,2.72-17.94a35.56,35.56,0,0,1,6.81-10.9,56.27,56.27,0,0,1,8.64-7.5,56.53,56.53,0,0,0,8.63-7.49,35.44,35.44,0,0,0,6.81-10.9q2.71-6.58,2.72-17.95V269.35q0-13.62.46-22.49T507.75,233q3.4-5,10.9-7t21.12-2.05q13.63,0,20.9,2.05t10.68,7q3.4,5,4.08,13.85t.68,22.49V460.13q0,20.44.91,31.57t5.91,16.13q5,5,16.12,5.9t31.57.91h45.43q13.62,0,22.48.68c5.91.46,10.52,1.82,13.86,4.09s5.68,5.9,7,10.9,2,12,2,21.13-.68,16-2,20.89-3.71,8.4-7,10.67-7.95,3.57-13.86,3.87-13.4.45-22.48.45H576.11q-27.25,0-45.87-.45t-30.89-3.64q-12.27-3.16-18.63-9.54t-9.54-18.62q-3.18-12.27-3.63-30.89t-.45-45.88Z"/><path class="cls-2" d="M935.74,223.92q11.81,0,19.76.69c5.29.45,9.54,1.81,12.72,4.08s5.37,5.84,6.58,10.68,1.82,11.81,1.82,20.9-.61,16.12-1.82,21.12-3.4,8.63-6.58,10.9-7.43,3.56-12.72,3.86-11.89.46-19.76.46q-15.45,0-23.62.67t-12,4.09c-2.58,2.27-4.09,5.84-4.54,10.68s-.68,11.81-.68,20.89v181.7q0,24.09-.91,38.39T888,574.83q-5,7.5-16.12,10t-31.57,2.5q-20.45,0-31.35-2.5t-16.12-10q-5.24-7.5-6.13-21.8t-.91-38.39v-109q0-11.34,2.72-17.94a35.39,35.39,0,0,1,6.82-10.9,56.21,56.21,0,0,1,8.63-7.5,56.53,56.53,0,0,0,8.63-7.49,35.25,35.25,0,0,0,6.81-10.9q2.73-6.58,2.73-17.95,0-13.62-.68-20.89c-.46-4.84-1.82-8.41-4.09-10.68s-5.84-3.63-10.68-4.09-11.81-.67-20.89-.67H740.42q-11.82,0-19.77-.46t-12.71-3.86q-4.77-3.41-6.59-10.9t-1.82-21.12q0-13.63,1.82-20.9t6.59-10.68q4.77-3.41,12.71-4.08t19.77-.69Z"/><path class="cls-3" d="M562,56.15a410.46,410.46,0,0,0-63.17-30.21l.31,39.5A371.38,371.38,0,0,0,562,56.15Z"/><path class="cls-3" d="M472.09,66l-.31-39.92a410.06,410.06,0,0,0-66.06,33.25A372.12,372.12,0,0,0,472.09,66Z"/><path class="cls-3" d="M279.53,182H473l-.69-89a397.54,397.54,0,0,1-97-12.94A410.67,410.67,0,0,0,279.53,182Z"/><path class="cls-3" d="M464.22.33A403.41,403.41,0,0,0,325.16,33.82a369.09,369.09,0,0,0,45.3,16.81A438.49,438.49,0,0,1,464.22.33Z"/><path class="cls-3" d="M592.54,75.87a395.82,395.82,0,0,1-93.17,16.55l.7,89.6H695.59A411,411,0,0,0,592.54,75.87Z"/><path class="cls-3" d="M639,28.56A403.69,403.69,0,0,0,505.75,0a438.2,438.2,0,0,1,90.87,46.15A368.15,368.15,0,0,0,639,28.56Z"/><path class="cls-3" d="M323.66,682.81A1010.06,1010.06,0,0,0,477,694.29l-.51-65.06H280.92A409.63,409.63,0,0,0,323.66,682.81Z"/><path class="cls-3" d="M727.51,182h64.38q12.17-7.91,23.92-16.37A408.27,408.27,0,0,0,670.36,42.7a397.93,397.93,0,0,1-47.28,22.53A437.78,437.78,0,0,1,727.51,182Z"/><path class="cls-3" d="M189.9,680.9A405,405,0,0,0,471.09,811.24,439.27,439.27,0,0,1,311,708.12,1025.38,1025.38,0,0,1,189.9,680.9Z"/><path class="cls-3" d="M512,810.92c113.18-6.54,213.8-59.42,283.38-139.85a1023.08,1023.08,0,0,1-122.58,31.67A439.56,439.56,0,0,1,512,810.92Z"/><path class="cls-3" d="M504.3,721.06l.51,64a411.24,411.24,0,0,0,121.31-74.38A1035.12,1035.12,0,0,1,504.3,721.06Z"/><path class="cls-3" d="M247.84,182A438.8,438.8,0,0,1,344.31,70.63,397.2,397.2,0,0,1,294.23,49,408,408,0,0,0,153,176.6q4.08,2.75,8.2,5.42Z"/><path class="cls-3" d="M728.63,629.23A438,438,0,0,1,701.41,669a997,997,0,0,0,123.81-36.84c.66-1,1.3-2,1.95-2.95Z"/><path class="cls-3" d="M249.12,629.23H149.45q4.67,7.07,9.62,13.93a995.46,995.46,0,0,0,122.74,32.36A436.11,436.11,0,0,1,249.12,629.23Z"/><path class="cls-3" d="M357.23,714.6a411.42,411.42,0,0,0,120.51,70.71l-.5-63.95A1038.72,1038.72,0,0,1,357.23,714.6Z"/><path class="cls-3" d="M659.44,677.72A409.36,409.36,0,0,0,697,629.23H503.58l.51,64.68A1007.68,1007.68,0,0,0,659.36,677.8Z"/></g></g></svg>