<svg xmlns="http://www.w3.org/2000/svg" viewBox="0 0 1395.5 259.37"><defs><style>.cls-1{fill:#787878;}.cls-2{fill:#b4b4b4;}.cls-3{fill:#bebebe;}.cls-4{fill:#a0a0a0;}.cls-5{fill:#548ada;}.cls-6{fill:#9468d8;}.cls-7{fill:none;}</style></defs><g id="Layer_2" data-name="Layer 2"><g id="svg2848"><path class="cls-1" d="M60.9,136.84c0-5,0-9.4.11-13.11-3.07.44-6.14.81-9.22,1.09a113.94,113.94,0,0,0,9.11,33.76Z"/><path class="cls-1" d="M51.23,117.19c3.4-.32,6.81-.75,10.21-1.28a40.31,40.31,0,0,1,1-5.74,22.82,22.82,0,0,1,4.75-9.56A19.72,19.72,0,0,1,77,94.78a53.51,53.51,0,0,1,11.53-1.65c4.08-.19,9.1-.29,14.94-.29h5.9L88.07,53.54a112.58,112.58,0,0,1-26,9.67A116.1,116.1,0,0,0,51.23,117.19Z"/><path class="cls-1" d="M107.14,209.17c-.11-2-.16-4.47-.16-7.53V179.27q-3.51,1.11-7,2.1v20.27c0,1.64,0,3.11-.07,4.45q3.63,2.53,7.43,4.79C107.23,210.32,107.17,209.76,107.14,209.17Z"/><path class="cls-1" d="M166.58,223.05a16.14,16.14,0,0,1-9-5.19q-7.72,3.57-15.57,6.64a116.5,116.5,0,0,0,39.59,1.66L180.43,224c-.67,0-1.37,0-2.09,0A55.49,55.49,0,0,1,166.58,223.05Z"/><path class="cls-1" d="M153.37,205.67c-.21-3.19-.31-7.34-.31-12.67V173.5l-6-11L146,163v38.6c0,3.11-.08,5.64-.24,7.74a18.67,18.67,0,0,1-1.35,5.86q4.89-2,9.74-4.27A28.52,28.52,0,0,1,153.37,205.67Z"/><path class="cls-1" d="M107,138.28a71,71,0,0,0-.31-7.6v-.13c-.78-.06-1.81-.11-3.2-.11a28.72,28.72,0,0,0-2.93.13c0,.17-.09.39-.14.64a41.63,41.63,0,0,0-.45,7.07v35.11c2.36-.68,4.7-1.42,7-2.18Z"/><path class="cls-1" d="M43.62,117.7A123.93,123.93,0,0,1,53,65,112.87,112.87,0,0,1,37.6,66.21,115.62,115.62,0,0,0,19.25,117,163.65,163.65,0,0,0,43.62,117.7Z"/><path class="cls-1" d="M98.65,214.45A14.05,14.05,0,0,1,97,217.67a13.73,13.73,0,0,1-7.83,5.42,32.9,32.9,0,0,1-8.79.95,34.21,34.21,0,0,1-8.8-.93,13.72,13.72,0,0,1-8-5.45,16.18,16.18,0,0,1-2.6-8.49c-.11-2-.16-4.47-.16-7.53V188.81a235,235,0,0,1-25.26,1.27A114.55,114.55,0,0,0,82.87,233a283,283,0,0,0,35.05-8.24A123,123,0,0,1,98.65,214.45Z"/><path class="cls-1" d="M60.9,175.15c-.91-1.51-1.79-3-2.64-4.61A121.35,121.35,0,0,1,44.2,125.36a171.5,171.5,0,0,1-25.56-.75,114.46,114.46,0,0,0,12.65,57.75,229.4,229.4,0,0,0,29.61-1.25Z"/><path class="cls-1" d="M73.69,31.4A114.68,114.68,0,0,0,43.33,58.3a105,105,0,0,0,13.59-1.82A124.5,124.5,0,0,1,73.69,31.4Z"/><path class="cls-1" d="M129.57,229a291.78,291.78,0,0,1-33.95,9.31,114.87,114.87,0,0,0,87.76-4.8A124.38,124.38,0,0,1,129.57,229Z"/><path class="cls-1" d="M84.41,46.8,79,36.84A116.91,116.91,0,0,0,66.9,54,105.49,105.49,0,0,0,84.41,46.8Z"/><path class="cls-2" d="M113,25.25a105.14,105.14,0,0,0,8.28-10A114.38,114.38,0,0,0,84.05,25.79,123.8,123.8,0,0,1,113,25.25Z"/><path class="cls-2" d="M218.4,110.88a23.08,23.08,0,0,1,5.76-10.3c3.61-3.6,8.63-5.87,14.94-6.73,1.2-.17,2.49-.31,3.87-.43a116.58,116.58,0,0,0-6-14.7,235,235,0,0,1-20.05,27.56C217.42,107.81,217.92,109.34,218.4,110.88Z"/><path class="cls-3" d="M209.11,88.8q2.5,4.64,4.58,9.36a228,228,0,0,0,19-27.18,114.43,114.43,0,0,0-42.19-41.42,172.79,172.79,0,0,1-12.82,21.82A121.64,121.64,0,0,1,209.11,88.8Z"/><path class="cls-3" d="M183.74,26A115.73,115.73,0,0,0,131,14.56a110.78,110.78,0,0,1-8.83,11.94,124,124,0,0,1,49.44,20.3A163.9,163.9,0,0,0,183.74,26Z"/><path class="cls-2" d="M207.58,208.19a124.6,124.6,0,0,1-14,19.82,114.64,114.64,0,0,0,17.68-13.24A23.09,23.09,0,0,1,207.58,208.19Z"/><path class="cls-4" d="M94.76,49.78l23.33,43.06h5.25A163.51,163.51,0,0,0,167.08,53a116.25,116.25,0,0,0-51.19-19.76A112.31,112.31,0,0,1,94.76,49.78Z"/><path class="cls-4" d="M85.78,33.2l5.33,9.85a104.45,104.45,0,0,0,14.51-10.69A116.81,116.81,0,0,0,85.78,33.2Z"/><path class="cls-4" d="M173.21,57.56a170.9,170.9,0,0,1-36.12,35.28h12.45c8.6,0,15.21.25,20.19.76,6.45.67,11.52,2.73,15.08,6.14s5.84,8.49,6.53,14.86c.21,2,.38,4.28.5,6.83a226.35,226.35,0,0,0,16.28-16.67,117,117,0,0,0-5.76-12.3A114.19,114.19,0,0,0,173.21,57.56Z"/><path class="cls-4" d="M192.09,131.52c0,.8,0,1.6,0,2.44a12.06,12.06,0,0,0,.41,3.81,6.52,6.52,0,0,0,.91,1.84,14.63,14.63,0,0,0,1.79,1.93,38.77,38.77,0,0,1,3.46,3.56,20.73,20.73,0,0,1,3.55,6.06,24,24,0,0,1,1.4,8.72V182l1.28-.94V158.44a22.77,22.77,0,0,1,1.47-8.75,19.43,19.43,0,0,1,3.74-5.9,27,27,0,0,1,4-3.43,9.63,9.63,0,0,0,1.52-1.32,2.89,2.89,0,0,0,.31-.46A114.48,114.48,0,0,0,211,113,233.93,233.93,0,0,1,192.09,131.52Z"/><path class="cls-4" d="M152.48,130.58a26.31,26.31,0,0,0-2.94-.14c-1.38,0-2.42.05-3.19.11,0,0,0,.09,0,.13a73.16,73.16,0,0,0-.31,7.6v6.11l4.13,7.62c1-.56,1.95-1.13,2.91-1.7v-12a40.73,40.73,0,0,0-.45-7.07C152.57,131,152.52,130.75,152.48,130.58Z"/><path class="cls-4" d="M205.05,190.38l-1.43,1V193q0,3.6-.06,6.59c.62-1.22,1.22-2.45,1.79-3.69C205.23,194.2,205.12,192.37,205.05,190.38Z"/><path class="cls-5" d="M150.11,101.28q12.39,0,19.37.72t10.37,4q3.38,3.24,4.1,9.93a183.58,183.58,0,0,1,.72,18.51,20.1,20.1,0,0,0,.86,6.48,14.52,14.52,0,0,0,2.16,4.1,22.92,22.92,0,0,0,2.74,3,31.69,31.69,0,0,1,2.74,2.81,13.08,13.08,0,0,1,2.16,3.74,16.63,16.63,0,0,1,.86,5.84v33.12q0,7.63-.29,12.16a14.12,14.12,0,0,1-1.87,6.92,7.93,7.93,0,0,1-5.11,3.17,49.08,49.08,0,0,1-10,.79,49,49,0,0,1-10-.79,7.93,7.93,0,0,1-5.11-3.17,14.12,14.12,0,0,1-1.87-6.92q-.3-4.53-.29-12.16V138.72a49,49,0,0,0-.58-8.5,10.41,10.41,0,0,0-1.94-4.82,6,6,0,0,0-3.6-2.09,28.78,28.78,0,0,0-5.4-.43,33.93,33.93,0,0,0-6.05.43,5.45,5.45,0,0,0-3.53,2.09,10,10,0,0,0-1.58,4.82,79,79,0,0,0-.36,8.5v63.36c0,2.88-.07,5.25-.22,7.13a9,9,0,0,1-1.29,4.39,5.83,5.83,0,0,1-3.39,2.23,25.89,25.89,0,0,1-6.62.65,26.92,26.92,0,0,1-6.7-.65,5.85,5.85,0,0,1-3.45-2.23,8.57,8.57,0,0,1-1.23-4.39c-.09-1.88-.14-4.25-.14-7.13V138.72a79,79,0,0,0-.36-8.5,10,10,0,0,0-1.58-4.82,5.45,5.45,0,0,0-3.53-2.09,33.93,33.93,0,0,0-6-.43,28.49,28.49,0,0,0-5.47.43A5.93,5.93,0,0,0,95,125.4a10.41,10.41,0,0,0-1.94,4.82,49,49,0,0,0-.58,8.5v63.36c0,2.88-.07,5.25-.22,7.13A9,9,0,0,1,91,213.6a5.83,5.83,0,0,1-3.39,2.23,25.89,25.89,0,0,1-6.62.65,26.92,26.92,0,0,1-6.7-.65,5.85,5.85,0,0,1-3.45-2.23,8.57,8.57,0,0,1-1.23-4.39c-.09-1.88-.14-4.25-.14-7.13v-64.8q0-8.64.14-14.69a45.68,45.68,0,0,1,1.16-10,14.83,14.83,0,0,1,3-6.26,11.76,11.76,0,0,1,5.9-3.39,46.3,46.3,0,0,1,9.8-1.37q5.9-.28,14.54-.28Z"/><path class="cls-5" d="M213.47,158.88a15.37,15.37,0,0,1,.86-5.69,11.47,11.47,0,0,1,2.16-3.46,18.24,18.24,0,0,1,2.74-2.37A17.77,17.77,0,0,0,222,145a10.86,10.86,0,0,0,2.16-3.46,15.08,15.08,0,0,0,.87-5.68,147.59,147.59,0,0,1,.93-18.72q.95-6.91,4.47-10.44t10.37-4.47a147.19,147.19,0,0,1,18.79-.93h20.16c2.88,0,5.25.07,7.13.21a9.06,9.06,0,0,1,4.39,1.3,5.83,5.83,0,0,1,2.23,3.38,26,26,0,0,1,.65,6.63,26.77,26.77,0,0,1-.65,6.69,5.85,5.85,0,0,1-2.23,3.46,8.47,8.47,0,0,1-4.39,1.22c-1.88.1-4.25.15-7.13.15h-14.4q-6.48,0-10,.21a10.52,10.52,0,0,0-5.11,1.3,4.52,4.52,0,0,0-1.87,3.38,55.59,55.59,0,0,0-.29,6.63,57.19,57.19,0,0,0,.29,6.69,4.58,4.58,0,0,0,1.87,3.46,10,10,0,0,0,5.11,1.22q3.52.15,10,.15h14.4c2.88,0,5.25.07,7.13.21a9.06,9.06,0,0,1,4.39,1.3,5.85,5.85,0,0,1,2.23,3.46,26.77,26.77,0,0,1,.65,6.69,25.89,25.89,0,0,1-.65,6.62,5.83,5.83,0,0,1-2.23,3.39,8.47,8.47,0,0,1-4.39,1.22c-1.88.1-4.25.15-7.13.15h-14.4q-6.48,0-10,.21a10.52,10.52,0,0,0-5.11,1.3,4.52,4.52,0,0,0-1.87,3.38,55.59,55.59,0,0,0-.29,6.63,57.19,57.19,0,0,0,.29,6.69,4.58,4.58,0,0,0,1.87,3.46,10,10,0,0,0,5.11,1.22q3.52.15,10,.15h14.4c2.88,0,5.25.07,7.13.21a9.06,9.06,0,0,1,4.39,1.3,5.85,5.85,0,0,1,2.23,3.46,26.77,26.77,0,0,1,.65,6.69,26,26,0,0,1-.65,6.63,5.83,5.83,0,0,1-2.23,3.38,8.47,8.47,0,0,1-4.39,1.22c-1.88.1-4.25.15-7.13.15H248a144.93,144.93,0,0,1-18.79-.94q-6.84-.93-10.37-4.46t-4.47-10.37a147.19,147.19,0,0,1-.93-18.79Z"/><path class="cls-5" d="M380.51,101.28q3.74,0,6.26.21a8,8,0,0,1,4,1.3,5.63,5.63,0,0,1,2.09,3.38,29.26,29.26,0,0,1,.58,6.63,30.11,30.11,0,0,1-.58,6.69A5.66,5.66,0,0,1,390.8,123a7.49,7.49,0,0,1-4,1.22q-2.52.15-6.26.15c-3.27,0-5.76.07-7.49.21a6.57,6.57,0,0,0-3.82,1.3,5,5,0,0,0-1.44,3.38q-.21,2.31-.21,6.63v57.6q0,7.63-.29,12.16a14.23,14.23,0,0,1-1.87,6.92,7.93,7.93,0,0,1-5.12,3.17,48.9,48.9,0,0,1-10,.79,48,48,0,0,1-9.94-.79,8.17,8.17,0,0,1-5.11-3.17,13.56,13.56,0,0,1-1.94-6.92q-.3-4.53-.29-12.16V158.88a15.37,15.37,0,0,1,.86-5.69,11.47,11.47,0,0,1,2.16-3.46,18.24,18.24,0,0,1,2.74-2.37,17.77,17.77,0,0,0,2.73-2.38,10.86,10.86,0,0,0,2.16-3.46,15.08,15.08,0,0,0,.87-5.68q0-4.32-.22-6.63a5.34,5.34,0,0,0-1.29-3.38,5.41,5.41,0,0,0-3.39-1.3c-1.54-.14-3.74-.21-6.62-.21h-14.4q-3.75,0-6.27-.15a7.52,7.52,0,0,1-4-1.22,5.71,5.71,0,0,1-2.09-3.46,30.21,30.21,0,0,1-.57-6.69,29.37,29.37,0,0,1,.57-6.63,5.68,5.68,0,0,1,2.09-3.38,8.08,8.08,0,0,1,4-1.3q2.52-.21,6.27-.21Z"/><path class="cls-5" d="M405,161.76a17,17,0,0,1,.86-5.91,16.41,16.41,0,0,1,2.16-4,21.23,21.23,0,0,1,2.74-3,20.69,20.69,0,0,0,2.73-3,15.6,15.6,0,0,0,2.16-4,16.89,16.89,0,0,0,.87-5.9,147.59,147.59,0,0,1,.93-18.72c.63-4.61,2.11-8.09,4.47-10.44s5.8-3.84,10.36-4.47a147.37,147.37,0,0,1,18.8-.93h8.64a147.59,147.59,0,0,1,18.72.93c4.61.63,8.08,2.12,10.44,4.47s3.84,5.83,4.46,10.44a147.28,147.28,0,0,1,.94,18.72,17.15,17.15,0,0,0,.86,5.9,16.23,16.23,0,0,0,2.16,4,20.74,20.74,0,0,0,2.74,3,20.6,20.6,0,0,1,2.73,3,15.77,15.77,0,0,1,2.16,4,17,17,0,0,1,.87,5.91v31.68q0,8.06-.29,12.67a13.86,13.86,0,0,1-1.87,6.91,7.25,7.25,0,0,1-5.11,2.88,65.36,65.36,0,0,1-10,.58,62.6,62.6,0,0,1-9.15-.51,7.62,7.62,0,0,1-4.75-2.23,8.55,8.55,0,0,1-1.73-5.18q-.21-3.47-.21-9.36v-3.46q0-5.76-.29-9.07a8.35,8.35,0,0,0-1.87-5,8.07,8.07,0,0,0-5.11-2.16,116.73,116.73,0,0,0-20,0,8,8,0,0,0-5.11,2.16,8.28,8.28,0,0,0-1.87,5c-.2,2.21-.29,5.23-.29,9.07v3.46q0,5.9-.22,9.36a8.48,8.48,0,0,1-1.73,5.18,7.62,7.62,0,0,1-4.75,2.23,62.54,62.54,0,0,1-9.14.51,65.28,65.28,0,0,1-10-.58,7.23,7.23,0,0,1-5.11-2.88c-1.06-1.53-1.68-3.84-1.88-6.91s-.28-7.3-.28-12.67Zm33.12-21.6c0,4.32.09,7.65.29,10s.81,4.05,1.87,5.11a8,8,0,0,0,5.11,1.87q3.53.28,10,.29c4.32,0,7.65-.1,10-.29a6.46,6.46,0,0,0,7-7c.19-2.36.29-5.69.29-10s-.1-7.66-.29-10a8,8,0,0,0-1.87-5.11q-1.59-1.59-5.11-1.87c-2.36-.2-5.69-.29-10-.29s-7.66.09-10,.29-4.06.81-5.11,1.87-1.68,2.76-1.87,5.11S438.11,135.84,438.11,140.16Z"/><path class="cls-5" d="M523.07,158.88a15.16,15.16,0,0,1,.86-5.69,11.47,11.47,0,0,1,2.16-3.46,17.3,17.3,0,0,1,2.74-2.37,18.25,18.25,0,0,0,2.73-2.38,10.86,10.86,0,0,0,2.16-3.46,15.08,15.08,0,0,0,.87-5.68V115.68c0-2.88,0-5.26.14-7.13a8.44,8.44,0,0,1,1.22-4.39,5.84,5.84,0,0,1,3.46-2.23,26.39,26.39,0,0,1,6.7-.65,25.54,25.54,0,0,1,6.62.65,5.79,5.79,0,0,1,3.38,2.23,8.92,8.92,0,0,1,1.3,4.39c.14,1.87.22,4.25.22,7.13v60.48c0,4.32.09,7.65.28,10s.82,4.05,1.88,5.11,2.75,1.68,5.11,1.87,5.69.29,10,.29h14.4q4.32,0,7.12.21a9.06,9.06,0,0,1,4.4,1.3,5.85,5.85,0,0,1,2.23,3.46,26.77,26.77,0,0,1,.65,6.69,26,26,0,0,1-.65,6.63,5.83,5.83,0,0,1-2.23,3.38,8.48,8.48,0,0,1-4.4,1.22q-2.8.15-7.12.15H557.63q-8.64,0-14.55-.15a43.88,43.88,0,0,1-9.79-1.15,10.81,10.81,0,0,1-8.93-8.93,43.88,43.88,0,0,1-1.15-9.79q-.15-5.9-.14-14.54Z"/><path class="cls-5" d="M615.23,158.88a15.16,15.16,0,0,1,.86-5.69,11.47,11.47,0,0,1,2.16-3.46,17.3,17.3,0,0,1,2.74-2.37,18.25,18.25,0,0,0,2.73-2.38,10.86,10.86,0,0,0,2.16-3.46,15.08,15.08,0,0,0,.87-5.68,147.59,147.59,0,0,1,.93-18.72c.63-4.61,2.11-8.09,4.47-10.44s5.8-3.84,10.36-4.47a147.37,147.37,0,0,1,18.8-.93h20.16q4.32,0,7.12.21a9.06,9.06,0,0,1,4.4,1.3,5.83,5.83,0,0,1,2.23,3.38,26,26,0,0,1,.65,6.63,26.77,26.77,0,0,1-.65,6.69A5.85,5.85,0,0,1,693,123a8.48,8.48,0,0,1-4.4,1.22q-2.8.15-7.12.15h-14.4q-6.48,0-10,.21a10.49,10.49,0,0,0-5.11,1.3,4.56,4.56,0,0,0-1.88,3.38,58.28,58.28,0,0,0-.28,6.63,60,60,0,0,0,.28,6.69A4.62,4.62,0,0,0,652,146a10,10,0,0,0,5.11,1.22q3.53.15,10,.15h14.4q4.32,0,7.12.21a9.06,9.06,0,0,1,4.4,1.3,5.85,5.85,0,0,1,2.23,3.46,26.77,26.77,0,0,1,.65,6.69,25.89,25.89,0,0,1-.65,6.62A5.83,5.83,0,0,1,693,169a8.48,8.48,0,0,1-4.4,1.22q-2.8.15-7.12.15h-14.4q-6.48,0-10,.21a10.49,10.49,0,0,0-5.11,1.3,4.56,4.56,0,0,0-1.88,3.38,58.28,58.28,0,0,0-.28,6.63,60,60,0,0,0,.28,6.69,4.62,4.62,0,0,0,1.88,3.46,10,10,0,0,0,5.11,1.22q3.53.15,10,.15h14.4q4.32,0,7.12.21A9.06,9.06,0,0,1,693,195a5.85,5.85,0,0,1,2.23,3.46,26.77,26.77,0,0,1,.65,6.69,26,26,0,0,1-.65,6.63,5.83,5.83,0,0,1-2.23,3.38,8.48,8.48,0,0,1-4.4,1.22q-2.8.15-7.12.15H649.79a145.21,145.21,0,0,1-18.8-.94q-6.84-.93-10.36-4.46t-4.47-10.37a147.19,147.19,0,0,1-.93-18.79Z"/><path class="cls-5" d="M739.06,158.88q0,5.33.08,8.28a14.78,14.78,0,0,0,.64,4.53,5.46,5.46,0,0,0,1.8,2.52,22.94,22.94,0,0,0,3.53,2.09,62.66,62.66,0,0,0,5.91,2.88,14.73,14.73,0,0,0,10.72,0c1.59-.67,3.53-1.63,5.84-2.88a22.28,22.28,0,0,0,3.52-2.09,5.32,5.32,0,0,0,1.8-2.52,14.73,14.73,0,0,0,.65-4.53q.08-3,.07-8.28v-43.2q0-4.32.15-7.13a8.94,8.94,0,0,1,1.22-4.47,5.47,5.47,0,0,1,3.46-2.23,30.21,30.21,0,0,1,6.69-.57,25.58,25.58,0,0,1,6.63.65,5.79,5.79,0,0,1,3.38,2.23,9,9,0,0,1,1.3,4.39q.21,2.81.21,7.13v49q0,8.36-.14,13a24.51,24.51,0,0,1-1.08,7.2,7.69,7.69,0,0,1-3,4,62,62,0,0,1-5.84,3.24q-5,2.44-6.55,5.9t-1.51,9.94a11.16,11.16,0,0,1-.72,4.39,5.19,5.19,0,0,1-3.1,2.59,24.5,24.5,0,0,1-6.76,1.3q-4.4.36-11.6.36t-11.59-.36a24.59,24.59,0,0,1-6.77-1.3,5.2,5.2,0,0,1-3.09-2.59,11.16,11.16,0,0,1-.72-4.39c0-4.32-.51-7.61-1.51-9.87s-3.2-4.24-6.56-6a61.57,61.57,0,0,1-5.83-3.24,7.69,7.69,0,0,1-3-4,23.86,23.86,0,0,1-1.08-7.2q-.15-4.6-.15-13v-49q0-4.32.15-7.13a8.44,8.44,0,0,1,1.22-4.39,5.8,5.8,0,0,1,3.46-2.23,26.31,26.31,0,0,1,6.69-.65,29.37,29.37,0,0,1,6.63.57,5.44,5.44,0,0,1,3.38,2.23,9.57,9.57,0,0,1,1.3,4.47q.21,2.81.21,7.13Z"/><path class="cls-5" d="M816.82,158.88a15.14,15.14,0,0,1,.87-5.69,11.09,11.09,0,0,1,2.16-3.46,17.69,17.69,0,0,1,2.73-2.37,18.32,18.32,0,0,0,2.74-2.38,11.23,11.23,0,0,0,2.16-3.46,15.31,15.31,0,0,0,.86-5.68,145.43,145.43,0,0,1,.94-18.72q.93-6.91,4.46-10.44t10.37-4.47a147.19,147.19,0,0,1,18.79-.93h20.16q4.32,0,7.13.21a9.06,9.06,0,0,1,4.39,1.3,5.79,5.79,0,0,1,2.23,3.38,25.58,25.58,0,0,1,.65,6.63,26.31,26.31,0,0,1-.65,6.69,5.8,5.8,0,0,1-2.23,3.46,8.47,8.47,0,0,1-4.39,1.22q-2.81.15-7.13.15h-14.4c-4.32,0-7.65.07-10,.21a10.55,10.55,0,0,0-5.11,1.3,4.52,4.52,0,0,0-1.87,3.38,57.82,57.82,0,0,0-.29,6.63,59.51,59.51,0,0,0,.29,6.69,4.58,4.58,0,0,0,1.87,3.46,10,10,0,0,0,5.11,1.22c2.36.1,5.69.15,10,.15h14.4q4.32,0,7.13.21a9.06,9.06,0,0,1,4.39,1.3,5.8,5.8,0,0,1,2.23,3.46,26.31,26.31,0,0,1,.65,6.69,25.44,25.44,0,0,1-.65,6.62,5.78,5.78,0,0,1-2.23,3.39,8.47,8.47,0,0,1-4.39,1.22q-2.81.15-7.13.15h-14.4c-4.32,0-7.65.07-10,.21a10.55,10.55,0,0,0-5.11,1.3,4.52,4.52,0,0,0-1.87,3.38,57.82,57.82,0,0,0-.29,6.63,59.51,59.51,0,0,0,.29,6.69,4.58,4.58,0,0,0,1.87,3.46,10,10,0,0,0,5.11,1.22c2.36.1,5.69.15,10,.15h14.4q4.32,0,7.13.21a9.06,9.06,0,0,1,4.39,1.3,5.8,5.8,0,0,1,2.23,3.46,26.31,26.31,0,0,1,.65,6.69,25.58,25.58,0,0,1-.65,6.63,5.79,5.79,0,0,1-2.23,3.38,8.47,8.47,0,0,1-4.39,1.22q-2.81.15-7.13.15H851.38a145,145,0,0,1-18.79-.94q-6.84-.93-10.37-4.46t-4.46-10.37a145,145,0,0,1-.94-18.79Z"/><path class="cls-5" d="M914.74,158.88a15.14,15.14,0,0,1,.87-5.69,11.09,11.09,0,0,1,2.16-3.46,17.69,17.69,0,0,1,2.73-2.37,18.32,18.32,0,0,0,2.74-2.38,11.23,11.23,0,0,0,2.16-3.46,15.31,15.31,0,0,0,.86-5.68V115.68q0-4.32.14-7.13a8.54,8.54,0,0,1,1.23-4.39,5.8,5.8,0,0,1,3.46-2.23,26.31,26.31,0,0,1,6.69-.65,25.44,25.44,0,0,1,6.62.65,5.78,5.78,0,0,1,3.39,2.23,9,9,0,0,1,1.3,4.39q.21,2.81.21,7.13v60.48c0,4.32.1,7.65.29,10s.81,4.05,1.87,5.11a8,8,0,0,0,5.11,1.87q3.52.28,10,.29H981q4.32,0,7.13.21a9.06,9.06,0,0,1,4.39,1.3,5.8,5.8,0,0,1,2.23,3.46,26.31,26.31,0,0,1,.65,6.69,25.58,25.58,0,0,1-.65,6.63,5.79,5.79,0,0,1-2.23,3.38,8.47,8.47,0,0,1-4.39,1.22q-2.8.15-7.13.15H949.3q-8.64,0-14.54-.15a43.88,43.88,0,0,1-9.79-1.15,10.78,10.78,0,0,1-8.93-8.93,43.3,43.3,0,0,1-1.15-9.79q-.15-5.9-.15-14.54Z"/><path class="cls-6" d="M1067.38,101.28c2.5,0,4.58.07,6.27.21a8.11,8.11,0,0,1,4,1.3,5.68,5.68,0,0,1,2.09,3.38,29.37,29.37,0,0,1,.57,6.63,30.21,30.21,0,0,1-.57,6.69,5.71,5.71,0,0,1-2.09,3.46,7.54,7.54,0,0,1-4,1.22c-1.69.1-3.77.15-6.27.15q-4.89,0-7.49.21a6.54,6.54,0,0,0-3.81,1.3,4.91,4.91,0,0,0-1.44,3.38q-.23,2.31-.22,6.63v57.6q0,7.63-.29,12.16a14.12,14.12,0,0,1-1.87,6.92,7.93,7.93,0,0,1-5.11,3.17,49,49,0,0,1-10,.79,47.8,47.8,0,0,1-9.93-.79,8.19,8.19,0,0,1-5.12-3.17,13.66,13.66,0,0,1-1.94-6.92q-.28-4.53-.29-12.16V158.88a15.14,15.14,0,0,1,.87-5.69,11.09,11.09,0,0,1,2.16-3.46,17.69,17.69,0,0,1,2.73-2.37,18.32,18.32,0,0,0,2.74-2.38,11.23,11.23,0,0,0,2.16-3.46,15.31,15.31,0,0,0,.86-5.68q0-4.32-.21-6.63a4.46,4.46,0,0,0-4.68-4.68q-2.31-.21-6.63-.21h-14.4c-2.5,0-4.58,0-6.26-.15a7.49,7.49,0,0,1-4-1.22,5.66,5.66,0,0,1-2.09-3.46,29.51,29.51,0,0,1-.58-6.69,28.69,28.69,0,0,1,.58-6.63,5.63,5.63,0,0,1,2.09-3.38,8,8,0,0,1,4-1.3c1.68-.14,3.76-.21,6.26-.21Z"/><path class="cls-6" d="M1091.86,158.88a15.37,15.37,0,0,1,.86-5.69,11.47,11.47,0,0,1,2.16-3.46,18.24,18.24,0,0,1,2.74-2.37,18.32,18.32,0,0,0,2.74-2.38,11.23,11.23,0,0,0,2.16-3.46,15.31,15.31,0,0,0,.86-5.68,145.43,145.43,0,0,1,.94-18.72q.93-6.91,4.46-10.44t10.37-4.47a147.19,147.19,0,0,1,18.79-.93h20.16q4.32,0,7.13.21a9.06,9.06,0,0,1,4.39,1.3,5.79,5.79,0,0,1,2.23,3.38,26,26,0,0,1,.65,6.63,26.77,26.77,0,0,1-.65,6.69,5.8,5.8,0,0,1-2.23,3.46,8.47,8.47,0,0,1-4.39,1.22q-2.81.15-7.13.15h-14.4q-6.48,0-10,.21a10.55,10.55,0,0,0-5.11,1.3,4.52,4.52,0,0,0-1.87,3.38,57.82,57.82,0,0,0-.29,6.63,59.51,59.51,0,0,0,.29,6.69,4.58,4.58,0,0,0,1.87,3.46,10,10,0,0,0,5.11,1.22q3.52.15,10,.15h14.4q4.32,0,7.13.21a9.06,9.06,0,0,1,4.39,1.3,5.8,5.8,0,0,1,2.23,3.46,26.77,26.77,0,0,1,.65,6.69,25.89,25.89,0,0,1-.65,6.62,5.78,5.78,0,0,1-2.23,3.39,8.47,8.47,0,0,1-4.39,1.22q-2.81.15-7.13.15h-14.4q-6.48,0-10,.21a10.55,10.55,0,0,0-5.11,1.3,4.52,4.52,0,0,0-1.87,3.38,57.82,57.82,0,0,0-.29,6.63,59.51,59.51,0,0,0,.29,6.69,4.58,4.58,0,0,0,1.87,3.46,10,10,0,0,0,5.11,1.22q3.52.15,10,.15h14.4q4.32,0,7.13.21a9.06,9.06,0,0,1,4.39,1.3,5.8,5.8,0,0,1,2.23,3.46,26.77,26.77,0,0,1,.65,6.69,26,26,0,0,1-.65,6.63,5.79,5.79,0,0,1-2.23,3.38,8.47,8.47,0,0,1-4.39,1.22q-2.81.15-7.13.15h-31.68a145,145,0,0,1-18.79-.94q-6.84-.93-10.37-4.46t-4.46-10.37a145,145,0,0,1-.94-18.79Z"/><path class="cls-6" d="M1189.78,158.88a15.37,15.37,0,0,1,.86-5.69,11.47,11.47,0,0,1,2.16-3.46,18.24,18.24,0,0,1,2.74-2.37,18.32,18.32,0,0,0,2.74-2.38,11.23,11.23,0,0,0,2.16-3.46,15.31,15.31,0,0,0,.86-5.68,145.43,145.43,0,0,1,.94-18.72q.93-6.91,4.46-10.44t10.37-4.47a147.19,147.19,0,0,1,18.79-.93h17.28q4.32,0,7.13.21a9.06,9.06,0,0,1,4.39,1.3,5.79,5.79,0,0,1,2.23,3.38,26,26,0,0,1,.65,6.63,26.77,26.77,0,0,1-.65,6.69,5.8,5.8,0,0,1-2.23,3.46,8.47,8.47,0,0,1-4.39,1.22q-2.8.15-7.13.15h-11.52q-6.48,0-10,.28c-2.35.2-4,.82-5.11,1.88s-1.68,2.76-1.87,5.11-.29,5.69-.29,10v34.56c0,4.32.1,7.65.29,10s.81,4.05,1.87,5.11a8,8,0,0,0,5.11,1.87q3.53.28,10,.29h11.52q4.32,0,7.13.21a9.06,9.06,0,0,1,4.39,1.3,5.8,5.8,0,0,1,2.23,3.46,26.77,26.77,0,0,1,.65,6.69,26,26,0,0,1-.65,6.63,5.79,5.79,0,0,1-2.23,3.38,8.47,8.47,0,0,1-4.39,1.22q-2.8.15-7.13.15h-28.8a145,145,0,0,1-18.79-.94q-6.84-.93-10.37-4.46t-4.46-10.37a145,145,0,0,1-.94-18.79Z"/><path class="cls-6" d="M1293.46,115.68q0-4.32.14-7.13a8.54,8.54,0,0,1,1.23-4.39,5.81,5.81,0,0,1,3.45-2.23,34.86,34.86,0,0,1,13.4,0,5.81,5.81,0,0,1,3.45,2.23,8.54,8.54,0,0,1,1.23,4.39q.14,2.81.14,7.13v14.4c0,4.32.09,7.65.29,10s.81,4.06,1.87,5.12a8,8,0,0,0,5.11,1.87q3.52.28,10,.29h2.88c4.32,0,7.65-.1,10-.29a6.46,6.46,0,0,0,7-7q.28-3.53.29-10v-14.4q0-4.32.14-7.13a8.54,8.54,0,0,1,1.23-4.39,5.81,5.81,0,0,1,3.45-2.23,26.45,26.45,0,0,1,6.7-.65,25.44,25.44,0,0,1,6.62.65,5.78,5.78,0,0,1,3.39,2.23,8.92,8.92,0,0,1,1.29,4.39q.23,2.81.22,7.13v86.4c0,2.88-.07,5.25-.22,7.13a9,9,0,0,1-1.29,4.39,5.83,5.83,0,0,1-3.39,2.23,25.89,25.89,0,0,1-6.62.65,26.92,26.92,0,0,1-6.7-.65,5.85,5.85,0,0,1-3.45-2.23,8.57,8.57,0,0,1-1.23-4.39c-.09-1.88-.14-4.25-.14-7.13v-14.4q0-6.48-.29-10a8,8,0,0,0-1.87-5.11q-1.59-1.59-5.11-1.87c-2.36-.2-5.69-.29-10-.29h-2.88c-4.51,0-8,.09-10.3.29s-4,.81-5.11,1.87-1.63,2.76-1.73,5.11-.14,5.69-.14,10v5.76q0,7.63-.29,12.16a14.12,14.12,0,0,1-1.87,6.92,7.93,7.93,0,0,1-5.11,3.17,63.81,63.81,0,0,1-20,0,7.9,7.9,0,0,1-5.11-3.17,14.12,14.12,0,0,1-1.87-6.92q-.3-4.53-.29-12.16V161.76a16.53,16.53,0,0,1,.86-5.83,13,13,0,0,1,2.16-3.75,31.69,31.69,0,0,1,2.74-2.81,22.92,22.92,0,0,0,2.74-3,14.31,14.31,0,0,0,2.16-4.17,20.27,20.27,0,0,0,.86-6.41Z"/><rect class="cls-7" width="1395.5" height="259.37"/></g></g></svg>