<svg xmlns="http://www.w3.org/2000/svg" viewBox="0 0 576 448"><g id="Layer_2" data-name="Layer 2"><g id="svg2848"><path fill="#b4b4b4" d="M512,0H64A64,64,0,0,0,0,64V384a64,64,0,0,0,64,64H512a64,64,0,0,0,64-64V64A64,64,0,0,0,512,0ZM176,96a64,64,0,1,1-64,64A64,64,0,0,1,176,96Zm96,256H80a16,16,0,0,1-16-16,80,80,0,0,1,80-80h64a80,80,0,0,1,80,80A16,16,0,0,1,272,352Zm224-64H368a16,16,0,0,1,0-32H496a16,16,0,0,1,0,32Zm0-64H368a16,16,0,0,1,0-32H496a16,16,0,0,1,0,32Zm0-64H368a16,16,0,0,1,0-32H496a16,16,0,0,1,0,32Z"/></g></g></svg>