<svg id="Layer_1" data-name="Layer 1" xmlns="http://www.w3.org/2000/svg" viewBox="0 0 383.1 384"><defs><style>.cls-1{fill:#fff;}</style></defs><path class="cls-1" d="M288.45,358.3c14-8.09-16.35-65.95-5-77.3s67.18,21,75.27,7c8-13.79-26.48-47.29-22.27-63,4.06-15.25,47.1-16.5,47.1-33s-54-13.79-58.1-29c-4.21-15.75,40.37-53.23,32.39-67-8.08-14-55,16.37-66.39,5s10.12-67.19-3.86-75.28c-13.79-8-47.39,40.49-63.14,36.28-14.36-4.08-15.5-62-32-62s-16.8,56.93-32,61c-15.8,4.2-50.2-43.27-64-35.3-14,8.09,6,50.3-10,63.3-11.34,11.35-52.19-7-60.28,7-8,13.75,39.49,49.35,35.28,65.05-4.08,15.3-61,14.5-61,31s56.93,14.79,61,30c4.21,15.75-43.27,52.23-35.3,66,8.1,14,59-19.42,70.3-8s-14,70.2,0,78.3c13.79,8,42.29-47.51,58-43.3,15.26,4,21.5,69,38,69s16.78-56.93,32-61C240.21,318.84,274.65,366.3,288.45,358.3ZM92,192A100,100,0,1,1,192,292,99.92,99.92,0,0,1,92,192Z" transform="translate(-0.45)"/></svg>