<svg id="svg2848" xmlns="http://www.w3.org/2000/svg" viewBox="0 0 900 897.25"><defs><style>.cls-1{fill:#fff;}</style></defs><g id="layer1"><path id="path2862" class="cls-1" d="M316.61,181.29a298.25,298.25,0,0,0-84.91,62.92,271.69,271.69,0,0,0,35.66-1.64A323.55,323.55,0,0,1,316.61,181.29Zm28.15-12.21a323.62,323.62,0,0,1,75.13,5.15A274.08,274.08,0,0,0,443.66,150,298,298,0,0,0,344.76,169.08Zm-15.58,27.53a303.77,303.77,0,0,0-35.33,41.69,275.06,275.06,0,0,0,47.07-14.62Zm18.37-7.9,11.62,26.78A274.41,274.41,0,0,0,399.24,191,302.74,302.74,0,0,0,347.55,188.71ZM469,150.59a293.81,293.81,0,0,1-25.65,29,322.89,322.89,0,0,1,123.72,63.92,427.9,427.9,0,0,0,36.35-51.27A301.61,301.61,0,0,0,469,150.59ZM215,263.43A301.5,301.5,0,0,0,155.85,391,429.33,429.33,0,0,0,219,398.46a323,323,0,0,1,36.39-134.74A293.1,293.1,0,0,1,215,263.43ZM425.7,195.62a292.46,292.46,0,0,1-58.6,38.16l53.6,123.56a426.82,426.82,0,0,0,133.39-98.8A302.9,302.9,0,0,0,425.7,195.62ZM279.2,261.21a302.58,302.58,0,0,0-40.38,137.63,427.16,427.16,0,0,0,163.61-33.37L348.88,242A293.54,293.54,0,0,1,279.2,261.21Zm341.09-58.16a449.84,449.84,0,0,1-38.23,53.71A316.48,316.48,0,0,1,655,361q5.46,12.57,9.76,25.34a595.72,595.72,0,0,0,55.62-66.23A298.14,298.14,0,0,0,620.29,203.05ZM152.54,410.71a298.26,298.26,0,0,0,19.74,152.77,594.19,594.19,0,0,0,86.35,3.21q-7.44-13.43-13.69-27.78a316.68,316.68,0,0,1-26.22-120.45A448.84,448.84,0,0,1,152.54,410.71ZM569,271.78a446.31,446.31,0,0,1-140.3,103.91l59,136A594.46,594.46,0,0,0,648.83,402.2,300.21,300.21,0,0,0,569,271.78Zm-330.42,147a300.15,300.15,0,0,0,42.38,146.69,595.23,595.23,0,0,0,188.46-45.64l-59-136A446.45,446.45,0,0,1,238.54,418.78Zm491-77.61a612.55,612.55,0,0,1-58.28,67A317.67,317.67,0,0,1,671,567.61a738.52,738.52,0,0,0,73.57-60.8A298.26,298.26,0,0,0,729.52,341.17ZM181.8,584.48A298.34,298.34,0,0,0,294.65,706.6a737.77,737.77,0,0,0,92.83-13.42,317.87,317.87,0,0,1-117.15-107A614.75,614.75,0,0,1,181.8,584.48Zm472.75-160.3A614.14,614.14,0,0,1,495.64,530.1L544,641.51a746.25,746.25,0,0,0,100.95-55.78l0-.08A298.9,298.9,0,0,0,654.55,424.18ZM293.26,584.5A299.2,299.2,0,0,0,418,686.05a745.63,745.63,0,0,0,107.63-36.47L477.34,538.17A614.89,614.89,0,0,1,293.26,584.5Zm442.25-42.63a755.62,755.62,0,0,1-74.23,56.92,324.67,324.67,0,0,1-78.13,120A299.27,299.27,0,0,0,735.51,541.87Zm-409,181.49a299.28,299.28,0,0,0,228.88,7.48,324.72,324.72,0,0,1-138.66-23.92A756.68,756.68,0,0,1,326.52,723.36ZM631.79,617.65A764.93,764.93,0,0,1,552,659.91l18.8,43.35A303.68,303.68,0,0,0,631.79,617.65ZM450.06,698a303.86,303.86,0,0,0,102.37,13.3l-18.8-43.35A768.18,768.18,0,0,1,450.06,698Z"/><path id="path4005" class="cls-1" d="M450,0C296.44,0,160.78,77.05,79.56,194.56l87,50.25C230.18,157.11,333.44,100,450,100s219.82,57.11,283.44,144.81l87-50.25C739.22,77.05,603.56,0,450,0Z"/><path id="path4003" class="cls-1" d="M32.19,282.75A448.34,448.34,0,0,0,0,450C0,681.5,175.1,872.36,400,897.25V796.38C230.47,772.08,100,626.22,100,450a348.89,348.89,0,0,1,19.94-116.62Z"/><path id="path3918" class="cls-1" d="M867.81,282.75l-87.75,50.63A348.89,348.89,0,0,1,800,450c0,176.22-130.47,322.08-300,346.38V897.25C724.9,872.36,900,681.5,900,450A448.34,448.34,0,0,0,867.81,282.75Z"/></g></svg>