<?xml version="1.0" encoding="utf-8"?>
<!-- Generator: Adobe Illustrator 25.4.1, SVG Export Plug-In . SVG Version: 6.00 Build 0)  -->
<svg version="1.1" id="Layer_1" xmlns="http://www.w3.org/2000/svg" xmlns:xlink="http://www.w3.org/1999/xlink" x="0px" y="0px"
	 viewBox="0 0 14 16" style="enable-background:new 0 0 14 16;" xml:space="preserve">
<style type="text/css">
	.st0{opacity:0.4;enable-background:new    ;}
</style>
<path class="st0" d="M6.4,5.8c0.4,0.3,0.9,0.3,1.2,0l5-4c0.4-0.3,0.5-1,0.2-1.4s-1-0.5-1.4-0.2L7,3.7L2.6,0.2
	C2.2-0.1,1.6-0.1,1.2,0.4S0.9,1.4,1.4,1.8L6.4,5.8z"/>
<path d="M6.4,10.2c0.4-0.3,0.9-0.3,1.2,0l5,4c0.4,0.3,0.5,1,0.2,1.4s-1,0.5-1.4,0.2L7,12.3l-4.4,3.5c-0.4,0.3-1.1,0.3-1.4-0.2
	s-0.3-1.1,0.2-1.4L6.4,10.2z"/>
</svg>
