<svg xmlns="http://www.w3.org/2000/svg" viewBox="0 0 576 448"><g id="Layer_2" data-name="Layer 2"><g id="svg2848"><path fill="#b4b4b4" d="M512,0H64A64,64,0,0,0,0,64V384a64,64,0,0,0,64,64H512a64,64,0,0,0,64-64V64A64,64,0,0,0,512,0ZM302.69,235.94c.48,24.81-15.81,48.72-40.24,54.38a55.06,55.06,0,0,1-57.87-19.83,58.66,58.66,0,0,1-36.81,13.16,59.3,59.3,0,0,1-58.66-67.71c3-21.54,18.5-40.15,39-47.41a57.27,57.27,0,0,1,45.52,2.7,8.35,8.35,0,0,1,8-6.18h16.91a8.47,8.47,0,0,1,8.47,8.47v63.53a21.16,21.16,0,1,0,42.32,0V228.5c0-48.64-35.47-92.21-83.89-96.9a93.23,93.23,0,0,0-23.38,184.92A16.68,16.68,0,0,1,176.26,333v.35a16.79,16.79,0,0,1-19.13,16.66c-69-10-119.94-76.27-105.32-150.8,9.68-49.43,49.48-89.28,98.92-99,81.14-15.9,152,45.68,152,124.6ZM496,288H368a16,16,0,0,1,0-32H496a16,16,0,0,1,0,32Zm0-64H368a16,16,0,0,1,0-32H496a16,16,0,0,1,0,32Zm0-64H368a16,16,0,0,1,0-32H496a16,16,0,0,1,0,32Z"/><ellipse fill="#b4b4b4" cx="167.28" cy="224.86" rx="25.39" ry="25.42"/></g></g></svg>