<?xml version="1.0" encoding="utf-8"?><svg version="1.1" id="Layer_1" xmlns="http://www.w3.org/2000/svg" xmlns:xlink="http://www.w3.org/1999/xlink" x="0px" y="0px" viewBox="0 0 122.88 80.4" style="enable-background:new 0 0 122.88 80.4" xml:space="preserve"><style type="text/css"><![CDATA[
	.st0{fill-rule:evenodd;clip-rule:evenodd;fill:#acacac;}
	.st1{fill-rule:evenodd;clip-rule:evenodd;fill:#000000;}
]]></style><g><path class="st0" d="M24.52,0h73.84c1.4,0,2.69,0.58,3.62,1.51l0,0l0.01,0.01L102,1.53L102,1.53c0.93,0.94,1.51,2.22,1.51,3.62 v10.49h11.48c2.18,0,4.15,0.89,5.57,2.32c1.43,1.43,2.32,3.41,2.32,5.58v33.32c0,2.16-0.89,4.14-2.32,5.57 c-0.11,0.11-0.22,0.21-0.34,0.3c-1.4,1.25-3.24,2.02-5.23,2.02h-11.48v10.49c0,1.42-0.58,2.71-1.51,3.64 c-0.93,0.93-2.22,1.51-3.64,1.51H24.52c-1.4,0-2.69-0.57-3.63-1.51l-0.01-0.01l-0.01-0.01l-0.01-0.01 c-0.93-0.94-1.51-2.22-1.51-3.62V64.75H7.89c-2.16,0-4.14-0.89-5.58-2.32C0.89,61.01,0,59.04,0,56.86V23.54 c0-2.18,0.89-4.15,2.31-5.58c0.11-0.11,0.22-0.21,0.34-0.31c1.4-1.25,3.23-2.01,5.24-2.01h11.47V5.14c0.01-1.42,0.59-2.7,1.52-3.64 C20.94,1.45,21,1.4,21.06,1.35C21.98,0.51,23.19,0,24.52,0L24.52,0L24.52,0z M98.86,64.75H24.03v10.48c0,0.14,0.05,0.26,0.14,0.35 l0,0l0.01,0.01c0.09,0.09,0.21,0.14,0.35,0.14h73.84c0.13,0,0.25-0.05,0.35-0.15c0.09-0.09,0.15-0.21,0.15-0.35V64.75L98.86,64.75z"/><path class="st1" d="M7.89,19.92h107.09c1.99,0,3.62,1.65,3.62,3.62v33.32c0,1.97-1.65,3.62-3.62,3.62H7.89 c-1.97,0-3.62-1.63-3.62-3.62V23.54C4.27,21.54,5.9,19.92,7.89,19.92L7.89,19.92z"/><path class="st1" d="M24.12,64.75H98.8c0.05,0,0.09,0.04,0.09,0.09v10.39c0,0.27-0.22,0.49-0.49,0.49H24.52 c-0.27,0-0.49-0.22-0.49-0.49V64.84C24.03,64.79,24.07,64.75,24.12,64.75L24.12,64.75z"/><path class="st1" d="M30.24,6.61c1.83,0,3.32,1.49,3.32,3.32s-1.49,3.32-3.32,3.32c-1.83,0-3.31-1.49-3.31-3.32 S28.41,6.61,30.24,6.61L30.24,6.61z"/><path class="st1" d="M41.96,6.61c1.83,0,3.31,1.49,3.31,3.32s-1.49,3.32-3.31,3.32c-1.83,0-3.32-1.49-3.32-3.32 S40.13,6.61,41.96,6.61L41.96,6.61z"/><path class="st1" d="M53.69,6.61C55.52,6.61,57,8.1,57,9.93s-1.49,3.32-3.32,3.32s-3.32-1.49-3.32-3.32S51.86,6.61,53.69,6.61 L53.69,6.61z"/><path class="st0" d="M13.28,30.22h6.52l2.35,12.41l3.44-12.41h6.47l3.46,12.43l2.36-12.43h6.49l-4.9,22.24h-6.74l-3.9-14l-3.88,14h-6.73 L13.28,30.22L13.28,30.22z M45.89,30.22h6.52l2.35,12.41l3.44-12.41h6.47l3.46,12.43l2.36-12.43h6.49l-4.9,22.24h-6.74l-3.9-14 l-3.88,14h-6.73L45.89,30.22L45.89,30.22z M78.51,30.22h6.52l2.34,12.41l3.44-12.41h6.47l3.46,12.43l2.36-12.43h6.49l-4.9,22.24 h-6.74l-3.9-14l-3.88,14h-6.73L78.51,30.22L78.51,30.22z"/></g></svg>
