<svg xmlns="http://www.w3.org/2000/svg" viewBox="0 0 807.5 745.3"><g id="Layer_2" data-name="Layer 2"><g id="Layer_1-2" data-name="Layer 1"><path d="M547.5,745.3h-6.9Q434.85,717.7,358.9,641.8,253,535.9,253,386.4q0-59.85,43.7-102.4t105.8-42.6q62.1,0,107,42.6t44.9,102.4q0,39.15,28.8,66.7c19.2,18.4,43.3,27.6,72.5,27.6s53.7-9.2,73.6-27.6,29.9-40.6,29.9-66.7q0-138-104.7-236.9T402.6,50.6q-105.75,0-193.2,54.1T78.3,248.5c-18.4,38.3-27.6,84.4-27.6,138A495.58,495.58,0,0,0,82.9,563.6c4.6,15.3-.8,25.3-16.1,29.9s-25.3,0-29.9-13.8Q0,476.2,0,386.4T34.5,227.7Q82.8,124.2,182.9,62.1T402.6,0Q570.6,0,689,113.9T807.5,386.5q0,59.85-44.9,101.2t-107,41.4q-62.1,0-105.8-41.4T506.1,386.5q0-39.15-29.9-67.9c-19.9-19.2-44.5-28.8-73.6-28.8s-53.3,9.6-72.5,28.8-28.8,41.8-28.8,67.9q0,128.85,92,220.8,64.35,64.35,161,89.7c13.8,1.5,19.2,11.5,16.1,29.9C567.4,739.2,559.8,745.3,547.5,745.3Z"/><path d="M425.6,386.4q0,85.05,63.3,147.2t157.6,62.1c3.1,0,10-.8,20.7-2.3a200.06,200.06,0,0,1,26.5-2.3,62.51,62.51,0,0,1,20.7,3.5c6.9,2.4,11.1,7.3,12.7,15,3.1,16.9-3.8,26.8-20.7,29.9a360.4,360.4,0,0,1-59.8,4.6q-92,0-151.8-43.7Q377.5,519.85,377.5,386.5c0-16.9,8.4-25.3,25.3-25.3C417.9,361.1,425.6,369.6,425.6,386.4Z"/><path d="M294.4,736.1a22.12,22.12,0,0,1-16.1-6.9q-62.1-62.1-98.9-131.1-53-92-52.9-211.6,0-108.15,81.7-186.3T404.9,122Q520,122,601.6,200.2t81.7,186.3c0,15.3-8.4,23-25.3,23s-25.3-7.7-25.3-23q0-89.7-66.7-153T405,170.2q-94.35,0-161,63.3t-66.7,153q0,110.4,43.7,188.6,29.85,52.95,92,119.6,18.45,16,0,34.5C308.2,733.8,302.1,736.1,294.4,736.1Z"/></g></g></svg>