<svg id="Layer_1" data-name="Layer 1" xmlns="http://www.w3.org/2000/svg" viewBox="0 0 122.88 121.43"><title>generic-currency-sign</title><path d="M112.77,60.22a51,51,0,0,1-8.29,28l18.4,17.57-14.77,15.52-18.83-18a51,51,0,0,1-27.68,8.13v0a51,51,0,0,1-28.35-8.55L15.52,121.43,0,106.67,18.27,87.53A51,51,0,0,1,10.4,60.25h0v0h0a51,51,0,0,1,8.34-28L1.44,15.67,16.21.15,34,17.11A51,51,0,0,1,61.58,9V9a51,51,0,0,1,28.33,8.53L106.67,0l15.52,14.77L104.88,32.9a50.89,50.89,0,0,1,7.89,27.3h0v0ZM83.42,82.09a30.87,30.87,0,0,0,9.07-21.87h0A30.95,30.95,0,0,0,61.58,29.31v0a30.95,30.95,0,0,0-30.9,30.91h0v0h0A30.93,30.93,0,0,0,61.59,91.14v0a30.76,30.76,0,0,0,21.82-9Z"/></svg>