<svg xmlns="http://www.w3.org/2000/svg" shape-rendering="geometricPrecision" text-rendering="geometricPrecision"
	image-rendering="optimizeQuality" fill-rule="evenodd" clip-rule="evenodd" viewBox="0 0 512 433.997">
	<path fill="#1A1A1A" fill-rule="nonzero"
		d="M217.004 169.899l65.94-65.94c-8.729-8.556-19.912-14.031-32.553-15.645-14.343-1.828-30.667 1.267-47.605 10.381a7.307 7.307 0 01-8.622-1.267L160.518 63.8a7.316 7.316 0 010-10.343C196.99 16.984 241.878-.098 286.507.001c46.099.1 91.832 18.566 127.622 52.934 2.711 2.619 4.825 5.245 2.955 9.491-11.122 25.3 14.756 51.415 40.121 40.566 4.495-2.231 7.31.265 10.125 3.079l42.529 42.529a7.317 7.317 0 010 10.344l-86.634 86.634a7.317 7.317 0 01-10.344 0l-43.537-43.537a7.299 7.299 0 01-2.268-5.296l.003-.001a7.3 7.3 0 01.995-3.688c12.865-25.543-13.727-53.26-39.62-41.92l-64.498 64.499c1.96 14.11-2.307 29.441-15.893 43.027L88.445 418.28c-17.344 17.345-37.812 18.903-54.798 11.592-6.474-2.786-12.421-6.916-17.454-11.978-4.987-5.011-9.08-10.984-11.902-17.509-7.461-17.269-6.044-38.087 11.064-55.196l159.617-159.618c13.049-13.048 28.055-17.338 42.032-15.672z" />
	<path fill="#787472" d="M466.198 115.283l38.489 38.489-86.634 86.634-38.489-38.489z" />
	<path fill="#464544" d="M400.202 181.276l38.491 38.491-20.64 20.64-38.487-38.491z" />
	<path fill="#787472"
		d="M461.027 110.11l-.566-.566c-27.213 11.965-55.067-10.529-53.272-37.186l-68.923 68.924c27.381-1.822 50.395 27.918 36.126 55.461v.001l86.635-86.634zM225.562 171.686l67.466-67.467c-20.179-24.84-55.862-32.312-93.7-11.955l-33.637-33.635c71.624-71.625 176.72-65.382 244.39.537L262.02 207.226a52.503 52.503 0 00-1.517-4.1c-2.751-6.575-6.87-12.58-11.94-17.625-5.075-5.046-11.094-9.144-17.645-11.894a53.358 53.358 0 00-5.356-1.921z" />
	<path fill="#464544"
		d="M293.028 104.219c-19.865-23.614-53.052-32.777-93.701-11.955l-33.634-33.637c5.773-5.541 87.896-46.854 155.563 19.064l-28.228 26.528z" />
	<path fill="#ED715F"
		d="M242.18 252.779L82.561 412.397c-40.675 40.676-100.823-21.825-61.324-61.325l159.618-159.618c40.707-40.706 103.185 19.464 61.325 61.325z" />
</svg>
