<?xml version="1.0" encoding="utf-8"?>
<!-- Generator: Adobe Illustrator 16.0.0, SVG Export Plug-In . SVG Version: 6.00 Build 0)  -->
<!DOCTYPE svg PUBLIC "-//W3C//DTD SVG 1.1//EN" "http://www.w3.org/Graphics/SVG/1.1/DTD/svg11.dtd">
<svg version="1.1" id="Layer_1" xmlns="http://www.w3.org/2000/svg" xmlns:xlink="http://www.w3.org/1999/xlink" x="0px"
	y="0px" width="800px" height="300px" viewBox="0 250 800 300" enable-background="new 0 0 800 300" xml:space="preserve">
	<g>
		<path fill="#DE0104" d="M209.797,441.928l42.955-102.687h8.244l42.955,102.687h-10.849l-13.305-32.107h-46.137L220.5,441.928
		H209.797z M256.946,351.101l-21.116,50.765h41.653L256.946,351.101z" />
		<path fill="#DE0104" d="M315.041,441.928V339.241h42.521c17.645,0,30.371,16.343,30.371,32.252
		c0,16.777-11.858,32.542-29.504,32.542H325.02v37.893H315.041z M325.02,395.068h32.831c12.148,0,19.958-11.137,19.958-23.575
		c0-12.872-9.545-23.284-20.826-23.284H325.02V395.068z" />
		<path fill="#DE0104" d="M382.319,441.928l42.955-102.687h8.243l42.955,102.687h-10.848L452.32,409.82h-46.137l-13.162,32.107
		H382.319z M429.469,351.101l-21.117,50.765h41.654L429.469,351.101z" />
		<path fill="#DE0104" d="M525.064,338.662c18.223,0,31.529,9.257,37.893,22.417l-8.1,4.918
		c-6.508-13.595-19.234-18.223-30.371-18.223c-24.588,0-38.037,21.982-38.037,42.665c0,22.707,16.631,43.244,38.471,43.244
		c11.57,0,25.165-5.785,31.674-19.091l8.389,4.338c-6.652,15.331-24.876,23.865-40.641,23.865
		c-28.202,0-48.017-26.901-48.017-52.935C476.325,365.13,494.114,338.662,525.064,338.662" />
		<polygon fill="#DE0104" points="660.089,339.241 660.089,441.928 649.965,441.928 649.965,393.911 589.076,393.911 
		589.076,441.928 579.098,441.928 579.098,339.241 589.076,339.241 589.076,384.944 649.965,384.944 649.965,339.241 	" />
		<polygon fill="#DE0104" points="752.274,432.961 752.274,441.928 683.286,441.928 683.286,339.241 750.972,339.241 
		750.972,348.209 693.266,348.209 693.266,385.233 743.596,385.233 743.596,393.767 693.266,393.767 693.266,432.961 	" />
		<g>
			<defs>
				<path id="SVGID_1_" d="M180.038,267.03c-0.238,0.253-0.478,0.513-0.716,0.769C179.793,267.278,180.038,267.03,180.038,267.03
				 M179.215,251.258c-1.557,0.007-3.193,0.421-4.872,1.413c-4.668,2.756-12.419,10.551-21.671,21.852l8.504,16.051
				c5.967-8.537,12.029-16.217,18.146-22.774c-1.977,2.18-7.979,9.183-17.039,23.096c8.721-0.433,22.124-2.219,33.057-4.087
				c3.254-18.218-3.188-26.556-3.188-26.556s-5.54-8.96-12.852-8.994H179.215z" />
			</defs>
			<clipPath id="SVGID_2_">
				<use xlink:href="#SVGID_1_" overflow="visible" />
			</clipPath>

			<linearGradient id="SVGID_3_" gradientUnits="userSpaceOnUse" x1="-3159.0342" y1="1843.4004" x2="-3158.9312"
				y2="1843.4004" gradientTransform="matrix(605.117 -168.2331 -168.2331 -605.117 2221865.75 584294.0625)">
				<stop offset="0" style="stop-color:#FD8709" />
				<stop offset="0.3123" style="stop-color:#FE8809" />
				<stop offset="0.8383" style="stop-color:#F35806" />
				<stop offset="1" style="stop-color:#F35806" />
			</linearGradient>
			<polygon clip-path="url(#SVGID_2_)" fill="url(#SVGID_3_)" points="142.442,254.101 195.3,239.406 208.823,288.05 
			155.967,302.745 		" />
		</g>
		<g>
			<defs>
				<path id="SVGID_4_" d="M150.738,276.908c-2.451,3.055-4.998,6.341-7.609,9.827c-2.943,3.929-5.971,8.12-9.043,12.524
				c-2.838,4.068-5.712,8.323-8.595,12.735c-2.453,3.754-4.91,7.613-7.354,11.575c-0.091,0.147-0.181,0.297-0.271,0.444
				l11.063,21.856c2.361-4.688,4.754-9.311,7.177-13.837c2.584-4.828,5.202-9.551,7.847-14.146
				c2.748-4.771,5.525-9.403,8.331-13.869c0.165-0.264,0.329-0.53,0.495-0.792c2.774-4.393,5.574-8.618,8.396-12.653l-8.504-16.051
				C152.035,275.301,151.39,276.097,150.738,276.908" />
			</defs>
			<clipPath id="SVGID_5_">
				<use xlink:href="#SVGID_4_" overflow="visible" />
			</clipPath>

			<linearGradient id="SVGID_6_" gradientUnits="userSpaceOnUse" x1="-3161.0791" y1="1845.1328" x2="-3160.9768"
				y2="1845.1328" gradientTransform="matrix(1230.7996 -2639.4583 -2639.4583 -1230.7996 8760832 -6071994.5)">
				<stop offset="0" style="stop-color:#92014A" />
				<stop offset="0.3233" style="stop-color:#92014A" />
				<stop offset="0.6302" style="stop-color:#D00015" />
				<stop offset="0.7514" style="stop-color:#D50613" />
				<stop offset="1" style="stop-color:#F35806" />
			</linearGradient>
			<polygon clip-path="url(#SVGID_5_)" fill="url(#SVGID_6_)" points="90.539,333.128 125.603,257.935 188.504,287.267 
			153.44,362.459 		" />
		</g>
		<g>
			<defs>
				<path id="SVGID_7_" d="M95.486,451.924l-8.948,0.979c-0.275,0.755-0.551,1.506-0.827,2.268
				c-1.463,4.024-2.934,8.124-4.414,12.309c-0.021,0.061-0.043,0.122-0.064,0.184c-0.208,0.59-0.417,1.184-0.626,1.775
				c-0.995,2.824-1.855,5.361-3.837,11.14c3.26,1.488,5.876,5.4,8.353,9.84c-0.263-4.599-2.166-8.917-5.78-12.265
				c16.072,0.725,29.916-3.336,37.068-15.086c0.638-1.047,1.227-2.148,1.755-3.319c-3.255,4.125-7.284,5.874-14.879,5.451
				c-0.017,0.007-0.032,0.015-0.049,0.021c0.017-0.007,0.032-0.015,0.049-0.021c11.178-5.005,16.784-9.805,21.744-17.766
				c1.176-1.886,2.315-3.947,3.484-6.234C118.742,451.234,107.416,454.094,95.486,451.924" />
			</defs>
			<clipPath id="SVGID_8_">
				<use xlink:href="#SVGID_7_" overflow="visible" />
			</clipPath>

			<linearGradient id="SVGID_9_" gradientUnits="userSpaceOnUse" x1="-3160.6382" y1="1844.6943" x2="-3160.5359"
				y2="1844.6943" gradientTransform="matrix(733.437 -1572.8606 -1572.8606 -733.437 5219644.5 -3617739.25)">
				<stop offset="0" style="stop-color:#0A0344" />
				<stop offset="0.0955" style="stop-color:#4B067A" />
				<stop offset="0.7882" style="stop-color:#94014B" />
				<stop offset="0.9487" style="stop-color:#D5000F" />
				<stop offset="1" style="stop-color:#D5000F" />
			</linearGradient>
			<polygon clip-path="url(#SVGID_8_)" fill="url(#SVGID_9_)" points="57.918,481.628 86.012,421.38 147.366,449.991 
			119.272,510.237 		" />
		</g>
		<g>
			<defs>
				<path id="SVGID_10_" d="M117.325,324.903c-2.579,4.21-5.142,8.516-7.662,12.912c-2.547,4.44-5.046,8.97-7.486,13.556
				c-2.059,3.87-4.077,7.778-6.029,11.722c-0.396,0.799-0.783,1.592-1.167,2.384c-2.411,4.966-4.591,9.758-6.558,14.364
				c-2.231,5.224-4.192,10.209-5.915,14.94c-1.133,3.111-2.163,6.114-3.1,9.001c-0.775,2.467-1.512,4.931-2.213,7.392
				c-1.65,5.795-3.077,11.571-4.244,17.327l11.108,21.945c1.469-3.925,2.976-7.906,4.524-11.938c0.431-1.12,0.868-2.249,1.305-3.375
				c1.934-4.995,3.925-10.053,5.971-15.151c1.959-4.884,3.968-9.802,6.022-14.737c2.057-4.938,4.158-9.892,6.304-14.842
				c2.186-5.039,4.413-10.071,6.684-15.076c2.246-4.951,4.53-9.876,6.853-14.75c0.838-1.759,1.681-3.51,2.528-5.255
				c1.465-3.017,2.945-6.008,4.438-8.974c0.08-0.16,0.163-0.316,0.243-0.477l-11.063-21.856
				C117.687,324.313,117.506,324.608,117.325,324.903" />
			</defs>
			<clipPath id="SVGID_11_">
				<use xlink:href="#SVGID_10_" overflow="visible" />
			</clipPath>

			<linearGradient id="SVGID_12_" gradientUnits="userSpaceOnUse" x1="-3161.1299" y1="1845.124" x2="-3161.0273"
				y2="1845.124" gradientTransform="matrix(1230.7996 -2639.4583 -2639.4583 -1230.7996 8760876 -6072154.5)">
				<stop offset="0" style="stop-color:#92014A" />
				<stop offset="0.3233" style="stop-color:#92014A" />
				<stop offset="0.6302" style="stop-color:#D00015" />
				<stop offset="0.7514" style="stop-color:#D50613" />
				<stop offset="1" style="stop-color:#F35806" />
			</linearGradient>
			<polygon clip-path="url(#SVGID_11_)" fill="url(#SVGID_12_)" points="24.525,427.865 82.949,302.573 177.356,346.597 
			118.932,471.888 		" />
		</g>
		<g>
			<defs>
				<path id="SVGID_13_" d="M72.789,429.273c-1.396,7.025-2.389,14.018-2.887,20.975c-0.017,0.242-0.039,0.485-0.055,0.729
				c-3.469-5.56-12.762-10.99-12.74-10.937c6.652,9.641,11.698,19.215,12.449,28.612c-3.561,0.729-8.443-0.325-14.078-2.397
				c5.876,5.4,10.291,6.894,12.011,7.294c-5.399,0.336-11.025,4.044-16.688,8.318c8.288-3.381,14.978-4.717,19.774-3.63
				c-7.605,21.523-15.224,45.281-22.85,70.504c2.338-0.693,3.73-2.258,4.515-4.387c1.358-4.567,10.372-34.54,24.5-73.931
				c0.402-1.121,0.807-2.247,1.218-3.381c0.113-0.313,0.229-0.633,0.342-0.946c1.495-4.13,3.041-8.351,4.639-12.65
				c0.363-0.975,0.73-1.957,1.1-2.941c0.007-0.02,0.014-0.039,0.021-0.06l-11.108-21.945
				C72.899,428.76,72.84,429.017,72.789,429.273" />
			</defs>
			<clipPath id="SVGID_14_">
				<use xlink:href="#SVGID_13_" overflow="visible" />
			</clipPath>

			<linearGradient id="SVGID_15_" gradientUnits="userSpaceOnUse" x1="-3160.4702" y1="1844.3516" x2="-3160.3674"
				y2="1844.3516" gradientTransform="matrix(646.8221 -1387.1145 -1387.1145 -646.8221 4602638 -3190441)">
				<stop offset="0" style="stop-color:#0A0344" />
				<stop offset="0.0955" style="stop-color:#4B067A" />
				<stop offset="0.7882" style="stop-color:#94014B" />
				<stop offset="0.9487" style="stop-color:#D5000F" />
				<stop offset="1" style="stop-color:#D5000F" />
			</linearGradient>
			<polygon clip-path="url(#SVGID_14_)" fill="url(#SVGID_15_)" points="1.671,527.268 54.215,414.585 130.114,449.978 77.57,562.66 
					" />
		</g>
		<g>
			<defs>
				<path id="SVGID_16_" d="M172.479,339.974c-3.012,1.804-8.183,3.438-12.343,4.203c-0.062,0.012-0.126,0.024-0.187,0.035
				c-0.417,0.067-0.836,0.135-1.257,0.201c0.074-0.034,0.143-0.067,0.216-0.102l-28.105,3.08c-0.052,0.107-0.104,0.21-0.155,0.316
				c-0.318,0.649-0.637,1.304-0.957,1.962c-0.96,1.976-1.931,3.993-2.912,6.055c-1.061,2.23-2.135,4.514-3.218,6.846
				c-0.546,1.173-1.094,2.359-1.646,3.56c-1.653,3.598-3.332,7.313-5.035,11.15c-2.093,4.716-4.222,9.614-6.384,14.7
				c-2.061,4.848-4.152,9.867-6.271,15.061c-2.012,4.928-4.047,10.013-6.107,15.263c-1.836,4.678-3.69,9.483-5.563,14.422
				c-0.09,0.237-0.18,0.479-0.27,0.717c-1.856,4.904-3.729,9.942-5.617,15.108c-0.043,0.117-0.087,0.235-0.13,0.353l8.948-0.979
				c-0.178-0.033-0.354-0.056-0.534-0.09c10.697-1.335,24.919-9.324,34.11-19.196c4.233-4.547,8.079-9.91,11.634-16.189
				c2.645-4.673,5.13-9.857,7.496-15.59c2.069-5.015,4.052-10.437,5.969-16.324c-2.459,1.296-5.271,2.245-8.378,2.907
				c-0.544,0.115-1.098,0.223-1.659,0.321c-0.563,0.099-1.133,0.188-1.712,0.271c0.008-0.003,0.015-0.006,0.022-0.01
				c9.977-3.836,16.268-11.245,20.838-20.321c-2.624,1.788-6.891,4.131-12.004,5.256c-0.694,0.152-1.405,0.277-2.128,0.383
				c-0.179,0.025-0.355,0.058-0.537,0.079l0,0c0.005-0.002,0.011-0.004,0.016-0.007c0.003-0.001,0.007-0.002,0.01-0.004l0,0
				c3.462-1.446,6.384-3.071,8.92-4.986c0.543-0.41,1.07-0.833,1.58-1.271c0.774-0.668,1.51-1.372,2.212-2.113
				c0.449-0.473,0.886-0.96,1.308-1.466c0.993-1.186,1.922-2.457,2.795-3.841c0.267-0.423,0.528-0.854,0.785-1.297
				c0.333-0.643,0.651-1.271,0.956-1.884c1.395-2.801,2.509-5.301,3.396-7.492c0.443-1.096,0.829-2.114,1.164-3.053
				c0.134-0.377,0.26-0.739,0.379-1.091c0.354-1.052,0.639-1.991,0.864-2.814c0.338-1.234,0.544-2.21,0.654-2.92l0,0l0,0
				C173.306,339.447,172.914,339.713,172.479,339.974" />
			</defs>
			<clipPath id="SVGID_17_">
				<use xlink:href="#SVGID_16_" overflow="visible" />
			</clipPath>

			<linearGradient id="SVGID_18_" gradientUnits="userSpaceOnUse" x1="-3161.1304" y1="1845.2168" x2="-3161.0278"
				y2="1845.2168" gradientTransform="matrix(1230.7994 -2639.458 -2639.458 -1230.7994 8761149 -6072028)">
				<stop offset="0" style="stop-color:#92014A" />
				<stop offset="0.3233" style="stop-color:#92014A" />
				<stop offset="0.6302" style="stop-color:#D00015" />
				<stop offset="0.7514" style="stop-color:#D50613" />
				<stop offset="1" style="stop-color:#F35806" />
			</linearGradient>
			<polygon clip-path="url(#SVGID_17_)" fill="url(#SVGID_18_)" points="42.98,432.592 102.096,305.819 217.2,359.493 
			158.085,486.266 		" />
		</g>
		<g>
			<defs>
				<path id="SVGID_19_" d="M162.283,290.895c-2.497,3.835-5.226,8.193-8.168,13.124c-0.152,0.256-0.31,0.523-0.463,0.782
				c-2.537,4.271-5.229,8.962-8.063,14.099c-2.446,4.434-4.994,9.188-7.645,14.306c-2.308,4.458-4.691,9.186-7.143,14.187
				l28.105-3.08c8.188-3.766,11.847-7.17,15.398-12.103c0.944-1.356,1.893-2.78,2.834-4.25c2.888-4.507,5.718-9.47,8.247-14.4
				c2.441-4.763,4.599-9.491,6.248-13.746c1.05-2.71,1.896-5.229,2.476-7.438c0.513-1.951,0.913-3.803,1.229-5.567
				C184.407,288.676,171.004,290.462,162.283,290.895" />
			</defs>
			<clipPath id="SVGID_20_">
				<use xlink:href="#SVGID_19_" overflow="visible" />
			</clipPath>

			<linearGradient id="SVGID_21_" gradientUnits="userSpaceOnUse" x1="-3161.0752" y1="1845.2129" x2="-3160.9719"
				y2="1845.2129" gradientTransform="matrix(1230.7994 -2639.458 -2639.458 -1230.7994 8761057 -6071868)">
				<stop offset="0" style="stop-color:#92014A" />
				<stop offset="0.3233" style="stop-color:#92014A" />
				<stop offset="0.6302" style="stop-color:#D00015" />
				<stop offset="0.7514" style="stop-color:#D50613" />
				<stop offset="1" style="stop-color:#F35806" />
			</linearGradient>
			<polygon clip-path="url(#SVGID_20_)" fill="url(#SVGID_21_)" points="107.598,336.571 142.33,262.089 218.545,297.629 
			183.813,372.111 		" />
		</g>
		<g>
			<defs>
				<path id="SVGID_22_" d="M142.412,388.033L142.412,388.033c0.502-0.07,0.998-0.147,1.487-0.231
				C143.41,387.886,142.914,387.963,142.412,388.033 M143.899,387.802c0.075-0.013,0.149-0.025,0.225-0.039
				C144.049,387.776,143.975,387.789,143.899,387.802" />
			</defs>
			<clipPath id="SVGID_23_">
				<use xlink:href="#SVGID_22_" overflow="visible" />
			</clipPath>

			<linearGradient id="SVGID_24_" gradientUnits="userSpaceOnUse" x1="-3161.1553" y1="1845.2461" x2="-3161.0125"
				y2="1845.2461" gradientTransform="matrix(1230.7993 -2639.4578 -2639.4578 -1230.7993 8761230 -6071989)">
				<stop offset="0" style="stop-color:#92014A" />
				<stop offset="0.3233" style="stop-color:#92014A" />
				<stop offset="0.6302" style="stop-color:#D00015" />
				<stop offset="0.7514" style="stop-color:#D50613" />
				<stop offset="1" style="stop-color:#F35806" />
			</linearGradient>
			<polygon clip-path="url(#SVGID_23_)" fill="url(#SVGID_24_)" points="142.308,387.985 142.718,387.107 144.228,387.812 
			143.818,388.689 		" />
		</g>
		<g>
			<defs>
				<path id="SVGID_25_" d="M148.604,373.42L148.604,373.42c0.102-0.012,0.201-0.027,0.301-0.043
				C148.805,373.393,148.705,373.407,148.604,373.42 M148.904,373.377c0.079-0.013,0.157-0.025,0.236-0.036
				C149.062,373.352,148.983,373.364,148.904,373.377" />
			</defs>
			<clipPath id="SVGID_26_">
				<use xlink:href="#SVGID_25_" overflow="visible" />
			</clipPath>

			<linearGradient id="SVGID_27_" gradientUnits="userSpaceOnUse" x1="-3161.0615" y1="1845.2422" x2="-3161.0615"
				y2="1845.2422" gradientTransform="matrix(1230.7993 -2639.4578 -2639.4578 -1230.7993 8761218 -6071993)">
				<stop offset="0" style="stop-color:#92014A" />
				<stop offset="0.3233" style="stop-color:#92014A" />
				<stop offset="0.6302" style="stop-color:#D00015" />
				<stop offset="0.7514" style="stop-color:#D50613" />
				<stop offset="1" style="stop-color:#F35806" />
			</linearGradient>
			<polygon clip-path="url(#SVGID_26_)" fill="url(#SVGID_27_)" points="148.573,373.406 148.699,373.134 149.172,373.354 
			149.045,373.626 		" />
		</g>
		<g>
			<defs>
				<path id="SVGID_28_" d="M148.619,373.413c0.003-0.001,0.007-0.002,0.01-0.004l0,0
				C148.626,373.411,148.622,373.412,148.619,373.413 M148.629,373.409L148.629,373.409L148.629,373.409" />
			</defs>
			<clipPath id="SVGID_29_">
				<use xlink:href="#SVGID_28_" overflow="visible" />
			</clipPath>

			<linearGradient id="SVGID_30_" gradientUnits="userSpaceOnUse" x1="-3160.2944" y1="1842.5684" x2="-3160.2944"
				y2="1842.5684" gradientTransform="matrix(272.047 -583.4066 -583.4066 -272.047 1934863.5 -1342098.375)">
				<stop offset="0" style="stop-color:#92014A" />
				<stop offset="0.3233" style="stop-color:#92014A" />
				<stop offset="0.6302" style="stop-color:#D00015" />
				<stop offset="0.7514" style="stop-color:#D50613" />
				<stop offset="1" style="stop-color:#F35806" />
			</linearGradient>
			<rect x="148.618" y="373.407" clip-path="url(#SVGID_29_)" fill="url(#SVGID_30_)" width="0.012" height="0.008" />
		</g>
	</g>
</svg>