<svg height="32" viewBox="0 0 32 32" width="32" xmlns="http://www.w3.org/2000/svg">
	<path
		d="m16.232 24.047c-.15-.034-.295-.081-.441-.124-.037-.011-.074-.022-.11-.033-.143-.044-.284-.09-.425-.139-.019-.007-.039-.014-.058-.021-.126-.045-.251-.091-.375-.139-.035-.014-.07-.027-.105-.041-.136-.054-.271-.11-.405-.168-.027-.012-.054-.024-.081-.036-.115-.052-.228-.105-.341-.159-.033-.016-.065-.031-.099-.047-.089-.043-.177-.09-.264-.134-.059-.031-.118-.06-.176-.092-.107-.058-.212-.117-.317-.178-.035-.02-.071-.038-.107-.059-.139-.081-.277-.166-.412-.252-.037-.024-.074-.05-.111-.074-.099-.063-.197-.128-.293-.195-.032-.021-.063-.045-.094-.066-.093-.066-.186-.132-.277-.2-.042-.031-.082-.062-.123-.093-.084-.064-.168-.129-.25-.196-.037-.03-.075-.06-.112-.09-.105-.087-.209-.173-.312-.263-.011-.009-.023-.018-.034-.028-.111-.097-.22-.197-.328-.298-.031-.03-.062-.059-.092-.088-.08-.076-.158-.153-.235-.231-.031-.031-.062-.061-.092-.092-.098-.101-.194-.203-.289-.306-.005-.005-.01-.01-.014-.015-.1-.109-.197-.221-.293-.334-.026-.031-.051-.06-.077-.091-.071-.086-.142-.173-.211-.261-.026-.031-.052-.064-.077-.096-.083-.108-.164-.215-.243-.324-2.197-2.996-2.986-7.129-1.23-10.523l-1.556 1.974c-1.994 2.866-1.746 6.595-.223 9.64.036.073.074.145.112.217.024.045.046.092.071.137.014.027.03.053.044.079.026.049.053.095.079.142.047.083.096.166.145.249.027.045.055.091.083.136.055.089.111.176.169.264.024.037.047.075.072.111.08.118.161.236.244.353.002.003.005.006.007.009.013.018.028.037.041.056.072.1.147.199.223.296.028.036.056.072.084.107.067.085.136.169.206.253.026.031.052.063.079.094.094.11.189.22.287.328.002.002.004.004.006.005.004.005.008.008.011.013.095.104.193.206.291.307.031.032.062.063.093.094.076.077.154.153.233.228.032.03.063.061.095.091.105.099.211.196.319.291.002.001.003.003.005.004.018.016.038.032.056.047.095.082.192.164.29.245l.12.096c.08.064.16.127.241.189.043.033.086.066.129.098.089.066.18.131.271.194.033.024.065.047.099.07.009.006.018.013.027.019.086.06.175.116.263.174.038.025.075.051.114.076.136.086.273.171.412.253.038.022.076.043.114.064.102.059.205.117.309.174.056.03.114.059.171.088.073.038.147.078.221.115.017.009.035.017.051.025.03.014.06.028.091.044.116.055.233.11.351.163.025.011.049.022.074.033.135.059.271.116.409.17.033.014.066.026.1.039.127.049.256.098.386.143.016.006.032.012.049.017.142.05.286.096.43.141.034.01.069.021.104.031.147.044.293.097.445.125 9.643 1.759 12.444-5.795 12.444-5.795-2.352 3.065-6.528 3.873-10.485 2.974zm-3.474-7.816c.216.31.456.678.742.927.104.114.213.226.324.336.028.029.057.056.085.084.108.105.217.207.33.307.005.003.009.008.014.012.001.001.002.002.003.003.125.11.255.216.386.319.029.022.058.046.088.069.132.101.266.2.404.295l.012.009c.061.042.123.081.184.122.03.019.058.04.088.058.098.063.198.125.299.183.014.009.028.016.042.024.087.051.176.1.265.148.031.018.063.033.094.049.061.032.123.064.185.096.009.004.019.009.028.012.127.063.255.123.386.18.028.012.057.023.085.035.105.045.21.088.316.129.045.017.091.033.135.05.097.036.193.069.291.101.044.014.087.028.131.042.139.043.276.098.42.122 7.445 1.233 9.164-4.499 9.164-4.499-1.549 2.232-4.55 3.296-7.752 2.465-.142-.038-.282-.078-.422-.122-.043-.013-.084-.027-.127-.041-.099-.032-.197-.066-.295-.102-.045-.017-.089-.033-.133-.05-.107-.041-.213-.084-.317-.128-.029-.013-.058-.024-.086-.036-.131-.057-.261-.117-.389-.18-.066-.032-.13-.066-.195-.099-.037-.019-.075-.038-.112-.058-.083-.045-.165-.092-.246-.139-.019-.011-.04-.022-.059-.033-.101-.059-.2-.12-.299-.182-.03-.019-.06-.04-.09-.06-.065-.042-.13-.085-.193-.128-.137-.095-.271-.194-.402-.294-.03-.024-.061-.047-.091-.071-1.401-1.107-2.512-2.619-3.041-4.334-.554-1.778-.434-3.775.525-5.395l-1.178 1.663c-1.442 2.075-1.364 4.853-.239 7.048.189.368.401.725.638 1.065zm7.848-2.567c.061.023.123.043.185.064.027.008.054.018.082.026.088.027.175.06.265.076 4.111.794 5.226-2.11 5.523-2.537-.977 1.406-2.618 1.744-4.632 1.255-.159-.039-.334-.096-.488-.151-.197-.07-.39-.15-.579-.24-.358-.172-.699-.38-1.015-.619-1.802-1.367-2.922-3.976-1.746-6.101l-.637.877c-.85 1.251-.933 2.805-.344 4.186.622 1.467 1.897 2.617 3.384 3.163z"
		fill="#78d0f5" />
</svg>