<svg xmlns="http://www.w3.org/2000/svg" xmlns:xlink="http://www.w3.org/1999/xlink" viewBox="0 -1 13.25 15.67">
	<defs>
		<style>
			.cls-1 {
				fill: url(#linear-gradient);
			}

			.cls-2 {
				fill: #f6f6f6;
				stroke: #404040;
				stroke-miterlimit: 10;
				stroke-width: 0.25px;
			}
		</style>
		<linearGradient id="linear-gradient" x1="-12.96" y1="513.65" x2="-12.96" y2="502.99"
			gradientTransform="matrix(1, 0, 0, -1, 19.71, 514.62)" gradientUnits="userSpaceOnUse">
			<stop offset="0.15" stop-color="#2a4f84" />
			<stop offset="0.39" stop-color="#294e82" />
			<stop offset="1" stop-color="#172e4e" />
		</linearGradient>
	</defs>
	<g id="Layer_2" data-name="Layer 2">
		<g id="Layer_1-2" data-name="Layer 1">
			<path class="cls-1"
				d="M11.89,9.58c0,1.13-.44,2.05-1,2.05H2.6c-.54,0-1-.92-1-2.05V3c0-1.14.45-2,1-2.06h8.31c.54,0,1,.92,1,2.06Z" />
			<path class="cls-2"
				d="M12.31,7.12a1.62,1.62,0,0,0-.54,1.27v2A1.79,1.79,0,0,1,11.09,12a2.75,2.75,0,0,1-1.65.55H9.07v-1a1.24,1.24,0,0,0,.59-.33,1.37,1.37,0,0,0,.42-1V8.48a2.45,2.45,0,0,1,.26-1.33,2.42,2.42,0,0,1,1.2-.83,2.6,2.6,0,0,1-1.33-1.18A2.91,2.91,0,0,1,10.08,4V2.45A1.46,1.46,0,0,0,9.71,1.4a1.13,1.13,0,0,0-.65-.31v-1H10a1.7,1.7,0,0,1,1,.45,2,2,0,0,1,.68,1,2.32,2.32,0,0,1,.08.7V4a1.89,1.89,0,0,0,.5,1.39,2.35,2.35,0,0,0,.86.48v.79a1.8,1.8,0,0,0-.82.43Z" />
			<path class="cls-2"
				d="M3.72.13H3.39a1.63,1.63,0,0,0-1,.44,1.68,1.68,0,0,0-.67,1,3.25,3.25,0,0,0,0,.7V4a1.89,1.89,0,0,1-.54,1.39,3,3,0,0,1-1,.48v.79a2.49,2.49,0,0,1,1,.43,1.64,1.64,0,0,1,.58,1.26v2A1.8,1.8,0,0,0,2.28,12a2.82,2.82,0,0,0,1.66.55h.42v-1a1.4,1.4,0,0,1-.64-.33,1.32,1.32,0,0,1-.37-1V8.48A2.58,2.58,0,0,0,3,7.15a2.47,2.47,0,0,0-1.2-.83A2.56,2.56,0,0,0,3.17,5.14,2.9,2.9,0,0,0,3.35,4V2.45A1.47,1.47,0,0,1,3.66,1.4a1.29,1.29,0,0,1,.58-.27h.43v-1Z" />
		</g>
	</g>
</svg>