<?xml version="1.0" encoding="UTF-8"?>
<svg xmlns="http://www.w3.org/2000/svg" width="125" height="122" viewBox="0 0 125 122">
	<title>
		mediawiki logo
	</title>
	<g id="mediawiki-logo" fill="none" fill-rule="evenodd" stroke="none" stroke-width="1">
		<g id="Group-4">
			<g id="Group-Copy">
				<g id="Group-34" fill="#FAB302">
					<path id="Fill-3" d="M0,60.3902033 C3.79567337,57.2012099 7.78448404,54.9469764 12.3793741,53.6895019 C16.3471741,52.6037181 20.2074959,52.5910002 23.9053884,54.5209294 C26.4000113,55.8229162 29.0813067,57.6940255 29.0869722,60.391793 C29.0926202,63.1014835 26.3693033,64.9344393 23.8989236,66.2634514 C20.0628449,68.3277126 16.0118101,68.2005344 11.9720888,67.0169823 C7.61801423,65.741226 3.74233838,63.5561455 0,60.3902033"/>
					<path id="Fill-1" d="M3.729099,36.6221144 C5.84955612,36.1795889 7.61454182,35.7220491 9.41004363,35.4533728 C14.8014976,34.6457637 20.0708872,34.9247128 24.9427425,37.5672226 C28.6434392,39.5751823 30.7102869,42.7487227 31.3123615,46.7132776 C31.423704,47.4466057 30.7457516,48.6121864 30.0612011,49.0807893 C25.6074988,52.1271036 20.8486355,52.131845 16.1186388,49.7682844 C10.5061492,46.9621982 6.82607157,42.3931218 3.729099,36.6221144"/>
					<path id="Fill-6" d="M121.568627,60.5241163 C116.490848,64.6804044 111.033936,67.6114883 104.544942,67.8578046 C100.042341,68.0291897 96.174058,66.3360643 93.3718819,62.5926947 C92.2409661,61.0829115 92.1559043,59.8768386 93.2989719,58.3519098 C96.7200733,53.7922688 101.41548,52.3653882 106.831077,53.1625282 C112.061157,53.9317683 116.588061,56.4220338 120.730972,59.5914625 C120.986157,59.787559 121.169242,60.0745294 121.568627,60.5241163"/>
					<path id="Fill-8" d="M37.6302656,4.4749188 C43.8655097,7.77245569 49.0700178,11.5812386 51.7955936,17.7904814 C53.6812487,22.0865457 53.2687877,26.1924903 50.5173811,30.0755637 C49.7099574,31.2162814 48.785878,31.514242 47.3368483,31.2162814 C41.0699406,29.9277816 37.9219047,25.9544414 36.4562099,20.2596399 C35.0905056,14.9514683 36.0362496,9.88054673 37.6302656,4.4749188"/>
					<path id="Fill-10" d="M103.656161,17.1538554 C103.944676,24.5647139 99.3414474,36.3999414 90.9631497,38.4617911 C88.9402975,38.959674 86.6906974,38.7826296 84.5816972,38.5668638 C83.8632555,38.4933129 82.9237549,37.4603674 82.6539329,36.6731304 C81.0301247,31.9319268 82.7937202,27.9698777 86.0023262,24.5566314 C89.4433692,20.8952518 93.9596366,19.144579 98.7627931,18.0542476 C100.325648,17.7002335 101.916134,17.47069 103.656161,17.1538554"/>
					<path id="Fill-12" d="M84.844531,3.729099 C85.3374682,5.95269893 85.858526,7.8011467 86.1430401,9.68413739 C86.9957553,15.3202563 86.5441719,20.7764307 83.0795511,25.6116359 C81.0234406,28.481108 78.1435624,30.1616612 74.4961579,30.5512731 C73.1703553,30.6926581 72.3201214,30.2926029 71.5848509,29.1888362 C68.2103814,24.1206671 68.9373811,19.1569302 72.0165845,14.3353815 C74.9965388,9.66967757 79.42553,6.56402825 84.844531,3.729099"/>
					<path id="Fill-14" d="M117.839528,36.7646543 C115.869866,41.0187431 113.128822,44.3742388 109.710346,47.1958692 C106.501198,49.8435525 102.861032,51.8259082 98.5187104,51.4050684 C96.2869763,51.1894381 94.093152,50.2523683 91.9685542,49.4267207 C90.0705913,48.6892491 90.0129024,47.1237252 90.5065541,45.3962782 C92.07157,39.9165437 96.0488038,36.9217678 101.455073,35.6881061 C106.835793,34.4608572 112.192615,35.1181688 117.839528,36.7646543"/>
					<path id="Fill-16" d="M17.8996752,17.1538554 C25.4142582,18.177328 32.1547966,19.9016219 36.8095137,25.9056728 C39.197558,28.9865507 40.212738,32.4946801 39.0400162,36.4662688 C38.6244595,37.8743483 37.860864,38.4078093 36.5370307,38.6025265 C31.3960238,39.359671 27.1649013,37.727908 23.884656,33.7386177 C20.0136289,29.0324138 18.3891801,23.5014777 17.8996752,17.1538554"/>
					<path id="Fill-18" d="M61.0871899,0 C64.1924974,3.68249908 66.416832,7.35370709 67.6952972,11.5797901 C68.8537034,15.4066535 69.0305469,19.2214193 67.574427,23.0006989 C66.5685281,25.6097406 64.692202,27.5413186 62.2691212,28.8567273 C61.6485465,29.1930396 60.4836506,29.1535209 59.8736215,28.7865614 C56.336751,26.6573898 54.192726,23.6055772 53.7936113,19.3794941 C53.0838035,11.8677122 56.4527538,5.9439374 61.0871899,0"/>
					<path id="Fill-20" d="M117.839528,84.9462262 C115.719071,85.3887339 113.954086,85.8462552 112.158584,86.1149205 C106.76713,86.9232872 101.49774,86.6435591 96.6258849,84.0011564 C92.9251883,81.9932779 90.8583405,78.819866 90.256266,74.8554717 C90.1449234,74.1221733 90.8228759,72.9566398 91.5074264,72.4880558 C95.9611286,69.4418648 100.719167,69.4363335 105.449989,71.8005886 C111.062478,74.6065611 114.742556,79.1754525 117.839528,84.9462262"/>
					<path id="Fill-22" d="M83.9383679,117.839528 C77.7031445,114.542004 72.4986536,110.733236 69.7730869,104.524017 C67.8874381,100.22797 68.2998977,96.1220408 71.050462,92.2389824 C71.8587162,91.0974703 72.7827925,90.8003097 74.2318174,91.0982691 C80.4987044,92.3867639 83.6467298,96.3600888 85.1124197,102.054868 C86.4781195,107.363019 85.5323786,112.433921 83.9383679,117.839528"/>
					<path id="Fill-24" d="M17.9123984,104.414772 C17.6247005,97.003765 22.2270535,85.1683002 30.6060505,83.1072174 C32.6288753,82.6093244 34.8776323,82.7855268 36.9874166,83.0013343 C37.7050358,83.0748867 38.6445237,84.1078529 38.914342,84.8959139 C40.538941,89.6372126 38.7745566,93.5985329 35.5668068,97.0126559 C32.1249977,100.673301 27.6096041,102.424817 22.8057001,103.514362 C21.2436795,103.868383 19.6524015,104.098739 17.9123984,104.414772"/>
					<path id="Fill-26" d="M36.7239724,117.839528 C36.2318583,115.615906 35.7107964,113.76744 35.4254529,111.885233 C34.5727309,106.248254 35.025145,100.792025 38.4889664,95.9575746 C40.5459206,93.0872702 43.4249947,91.4075034 47.0724284,91.0170842 C48.3990687,90.8765012 49.2493095,91.2765604 49.9837587,92.3803382 C53.3582552,97.447755 52.6312497,102.412345 49.5520217,107.233139 C46.5720435,111.89889 42.1438439,115.005374 36.7239724,117.839528"/>
					<path id="Fill-28" d="M3.729099,84.8037769 C5.69876298,80.5504891 8.43981,77.1941913 11.8582896,74.3733621 C15.0666167,71.7256784 18.7076106,69.7433224 23.0491126,70.1633606 C25.2816732,70.3789909 27.4754997,71.3168625 29.5992755,72.1417086 C31.4980645,72.8791803 31.5557534,74.445506 31.0621013,76.1729533 C29.4970837,81.651887 25.5198459,84.647465 20.1135716,85.8803252 C14.7328452,87.1075743 9.37601848,86.4510642 3.729099,84.8037769"/>
					<path id="Fill-30" d="M103.668952,104.414772 C96.1543692,103.391299 89.4138309,101.66781 84.7591138,95.6621487 C82.3710695,92.582075 81.3558894,89.0739451 82.5286113,85.1015511 C82.944168,83.6942761 83.7077634,83.160815 85.0315968,82.9660977 C90.1726036,82.2089532 94.4029224,83.8407164 97.6839715,87.8308119 C101.554999,92.5362119 103.179447,98.0671488 103.668952,104.414772"/>
					<path id="Fill-32" d="M60.4814375,121.568627 C57.3761301,117.886884 55.1517954,114.214818 53.8733303,109.988677 C52.7149241,106.160954 52.5380805,102.346942 53.9942004,98.5668033 C55.0000994,95.9577254 56.8764254,94.0269272 59.2995062,92.7115003 C59.9192698,92.3759898 61.0849769,92.4147025 61.6950059,92.7824736 C65.2310653,94.9108682 67.3759014,97.9619166 67.7750162,102.188865 C68.4848239,109.700751 65.1158736,115.624608 60.4814375,121.568627"/>
				</g>
				<circle id="Oval" cx="60.784" cy="60.784" r="24.314" fill="#1E1A17"/>
			</g>
		</g>
	</g>
</svg>
