<svg xmlns="http://www.w3.org/2000/svg" xmlns:xlink="http://www.w3.org/1999/xlink" viewBox="0 0 487.81 103.48"><defs><style>.cls-1{fill:none;}.cls-2{clip-path:url(#clip-path);}.cls-3{fill:#37ba99;}.cls-4{fill:#1d3948;fill-rule:evenodd;}</style><clipPath id="clip-path" transform="translate(-0.39 0)"><rect class="cls-1" width="488.2" height="103.5"/></clipPath></defs><g id="Layer_2" data-name="Layer 2"><g id="katman_1" data-name="katman 1"><g class="cls-2"><path class="cls-3" d="M439,97.1c11.7,7.1,21.9-6.4,20.4-17.3-1-7.5-1.7-19.3-3.8-23.8s-8.7-5.3-12.1-6.5-9-4.8-13.5-2.5-12.4,11-17.9,16.2c-8,7.6-6.5,24.1,5,26.2s14.5,3.2,21.9,7.7Z" transform="translate(-0.39 0)"/></g><g class="cls-2"><path class="cls-3" d="M433.9,38.9c-2.3-.8-4.2-3.5-4.8-7S427.5,15.5,444.9.3a1.23,1.23,0,0,1,1.3-.2c.1,0,.1,0,.2.1a1.46,1.46,0,0,1,.7,1.3,97.24,97.24,0,0,0-.7,11.5c-.3,12.1-.6,25.8-10.7,26.2a4.84,4.84,0,0,1-1.8-.3Z" transform="translate(-0.39 0)"/></g><path class="cls-3" d="M406.8,54.5c-2.5-.9-4.3-3.6-5.1-7.6-1.6-8.9,2.3-22.6,13-31.5a1.09,1.09,0,0,1,1.2-.2c.1,0,.2.1.3.2a1.27,1.27,0,0,1,.4,1.5c-3.4,7.5-1.4,14.1.5,19.9,2.2,7,4.3,13.5-6,17.6a6.36,6.36,0,0,1-4.3.1Z" transform="translate(-0.39 0)"/><g class="cls-2"><path class="cls-3" d="M457.8,47.4a3.77,3.77,0,0,1-1.5-.9c-7.6-6.7.7-17.6,8.1-27.2a100.05,100.05,0,0,0,6.7-9.4,1.2,1.2,0,0,1,1.3-.6c.1,0,.1,0,.2.1a1.19,1.19,0,0,1,.8,1c4,22.8-4.7,32.2-7.5,34.5s-5.7,3.3-8.1,2.5Z" transform="translate(-0.39 0)"/></g><g class="cls-2"><path class="cls-3" d="M469.1,76.4a6.2,6.2,0,0,1-3.3-2.9c-5.4-9.6.3-13.4,6.4-17.4,5.1-3.4,10.8-7.2,12.8-15.2a1.3,1.3,0,0,1,1.3-1,.6.6,0,0,1,.4.1,1.21,1.21,0,0,1,.8,1c2.7,13.6-2.8,26.8-9.7,32.7-3,2.7-6.1,3.6-8.7,2.7Z" transform="translate(-0.39 0)"/></g><path class="cls-4" d="M101.4,53.8a24.94,24.94,0,0,1,1.4,5.7c.1.6.1,2,.2,2.9v2.9a27.34,27.34,0,0,1-.3,3.5c-1.4,5.8-3,8.8-9.1,9.8a12.51,12.51,0,0,1-5.7-.8c-3.7-1.5-5.3-4.9-6.1-9.2l-.3-2.1c0-.4-.1-.9-.1-1.3,0-1.3-.1-2.9,0-4.2,0-.6.1-1,.1-1.6a34,34,0,0,1,.7-3.4c1-3.3,2.8-5.7,5.9-6.9a12.17,12.17,0,0,1,3.7-.7c4.9.1,8.1,1.8,9.6,5.4ZM92.2,41.3c9.8-.2,15.8,3.9,18.7,10.8,1.8,4.4,2.5,13,1,18.4-2.2,8-5.8,12.4-14,14.5a30.35,30.35,0,0,1-6.3.7c-.8,0-1.6-.1-2.4-.1a35.56,35.56,0,0,1-4.9-.9,16.49,16.49,0,0,1-9.5-6.8,22.05,22.05,0,0,1-2.9-7.7,28.86,28.86,0,0,1-.4-2.9c-.1-1.4-.2-3.4-.2-4.9a16.55,16.55,0,0,1,.3-3.2c.8-4.2,1.7-7.3,3.8-10.3,2.7-3.8,6.3-5.7,11.4-7.1a21.08,21.08,0,0,1,3.5-.5,6,6,0,0,0,1.9,0Z" transform="translate(-0.39 0)"/><path class="cls-4" d="M242.9,53.8a24.94,24.94,0,0,1,1.4,5.7c.1.6.1,2,.2,2.9v2.9a27.34,27.34,0,0,1-.3,3.5c-1.4,5.8-3,8.8-9.1,9.8a12.51,12.51,0,0,1-5.7-.8c-3.6-1.4-5.2-4.8-6.1-8.9l-.3-2.1c0-.4-.1-1-.1-1.5,0-1.3-.1-2.9,0-4.2,0-.6.1-1,.1-1.6a34,34,0,0,1,.7-3.4c1-3.3,2.8-5.7,5.9-6.9a12.17,12.17,0,0,1,3.7-.7c4.9,0,8.1,1.7,9.6,5.3Zm-9.2-12.5c9.8-.2,15.8,3.9,18.7,10.8,1.8,4.4,2.5,13,1,18.4-2.2,8-5.8,12.4-14,14.5a30.35,30.35,0,0,1-6.3.7c-.8,0-1.6-.1-2.4-.1a35.56,35.56,0,0,1-4.9-.9,16.49,16.49,0,0,1-9.5-6.8,22.05,22.05,0,0,1-2.9-7.7,28.86,28.86,0,0,1-.4-2.9c-.1-1.4-.2-3.4-.2-4.9a16.55,16.55,0,0,1,.3-3.2c.8-4.2,1.7-7.3,3.8-10.3,2.7-3.8,6.3-5.7,11.4-7.1a26.45,26.45,0,0,1,3.8-.5,4.29,4.29,0,0,0,1.6,0Z" transform="translate(-0.39 0)"/><path class="cls-4" d="M289.7,53.8a24.94,24.94,0,0,1,1.4,5.7c.1.6.1,2,.2,2.9v2.9a27.34,27.34,0,0,1-.3,3.5c-1.4,5.8-3,8.8-9.1,9.8a12.51,12.51,0,0,1-5.7-.8c-3.6-1.4-5.2-4.8-6.1-8.9l-.3-2.1c0-.4-.1-1-.1-1.5,0-1.3-.1-2.9,0-4.2,0-.6.1-1,.1-1.6a34,34,0,0,1,.7-3.4c1-3.3,2.8-5.7,5.9-6.9a11,11,0,0,1,3.7-.7c4.9,0,8.1,1.7,9.6,5.3Zm-9.1-12.5c9.8-.2,15.8,3.9,18.7,10.8,1.8,4.4,2.5,13,1,18.4-2.2,8-5.8,12.4-14,14.5a30.35,30.35,0,0,1-6.3.7c-.8,0-1.6-.1-2.4-.1a35.56,35.56,0,0,1-4.9-.9,16.49,16.49,0,0,1-9.5-6.8,22.05,22.05,0,0,1-2.9-7.7,28.86,28.86,0,0,1-.4-2.9c-.1-1.4-.2-3.4-.2-4.9a16.55,16.55,0,0,1,.3-3.2c.8-4.2,1.7-7.3,3.8-10.3,2.7-3.8,6.3-5.7,11.4-7.1a26.45,26.45,0,0,1,3.8-.5,4.29,4.29,0,0,0,1.6,0Z" transform="translate(-0.39 0)"/><path class="cls-4" d="M322.7,41.5a49.25,49.25,0,0,1,11.4,1.2c.9.2,3.3.6,3.6,1.2a4.58,4.58,0,0,1,.1,1.7v4c0,1.1.2,4.5-.2,5.2-.4.3-1.7.1-2.6.1a19.53,19.53,0,0,1-2.3-.2,2.88,2.88,0,0,1-1.6-.3c-.4-.3-.4-.9-.5-1.5-.3-1.1-.4-3.2-.9-3.9s-2.7-1-4.1-1.2c-4.1-.5-8.6.3-9.9,3.1a5.19,5.19,0,0,0-.3,2.8c.6,2.9,2.8,3.7,5.4,4.6a58.45,58.45,0,0,0,6,1.5c6,1.7,10.6,3.4,12,10.2a14.09,14.09,0,0,1-.9,7.8c-1.7,3.9-5.2,6-9.6,7.2-6.3,1.6-16.7.3-21.5-1.8-.9-.4-.8-1.3-.8-2.6V74.4c0-1-.1-2.8.6-2.8l4,.3a5.57,5.57,0,0,1,2,.2c.4.2.4,1.1.5,1.6.2,1.1.4,3.6,1.1,4.2,1.1.8,3.4,1.1,5.1,1.3,3.6.4,8.3,0,9.8-2a5.77,5.77,0,0,0,1.2-3.4c0-.4-.1-.8-.1-1.1a4.53,4.53,0,0,0-3-3.4c-5.2-2.3-12.4-2.4-16.6-5.6a9.6,9.6,0,0,1-3.5-5.5,12.65,12.65,0,0,1-.3-2.8,20.9,20.9,0,0,1,.1-2.5,20.57,20.57,0,0,1,.7-2.9,11.93,11.93,0,0,1,5.6-6.3,21.17,21.17,0,0,1,6-2c.8,0,2.2-.1,3.5-.2Z" transform="translate(-0.39 0)"/><g class="cls-2"><path class="cls-4" d="M365.4,48.7a7.36,7.36,0,0,1,6.1,5.7,17.17,17.17,0,0,1,.6,3.4c0,.6,0,1.1-.2,1.3-.4.3-2.8.1-3.6.1H356.8c-.8,0-1.6.2-1.8-.3-.3-.7.4-3.3.6-3.8a8.9,8.9,0,0,1,4.7-5.8l1.8-.6a4.3,4.3,0,0,1,1.2-.2,20.62,20.62,0,0,1,2.1.2Zm-2.5-7.2c8.6-.2,14,3,16.6,8.8a22.45,22.45,0,0,1,1.4,4.8,33.55,33.55,0,0,1,.5,7.9c0,.9.1,2.7-.4,3a4,4,0,0,1-1.6.1H356.3c-.7,0-1.4-.1-1.6.4a2.55,2.55,0,0,0,.1,1.2,38.23,38.23,0,0,0,.8,3.9,9,9,0,0,0,6.3,6.2c.7.2,1.6.3,2.5.5a10.63,10.63,0,0,0,3.1.1c.9-.1,1.7-.2,2.7-.4a29.46,29.46,0,0,0,5.5-1.6c.4-.2,1.8-.9,2.2-.7s.6.9.7,1.3c.5,1.2,1,2.4,1.5,3.5.1.4.6,1.1.3,1.6s-1.8.9-2.4,1.2a34,34,0,0,1-8.2,2.3,23.76,23.76,0,0,1-3.9.3c-9.7.2-16.2-3.3-19.1-9.9a35.33,35.33,0,0,1-1.6-5.2c-.2-1-.3-2.1-.5-3.2,0-.3-.1-.9-.1-1.3-.1-1.5-.1-3.2-.1-4.6a16.83,16.83,0,0,1,.2-2,25.78,25.78,0,0,1,1.5-6.5,17.53,17.53,0,0,1,11.3-10.9,27.21,27.21,0,0,1,3.3-.7c.6,0,1.6-.1,2.1-.1Z" transform="translate(-0.39 0)"/></g><g class="cls-2"><path class="cls-4" d="M182.9,86.2c1,.2,1.9,0,2.7.2H187l4.6.3h1.3c2.6.4,5.1.2,6.8,1.5.9.7,1.2,2.6.8,4a4.7,4.7,0,0,1-2.4,2.6c-4.1,2.5-16.1,2.7-19.8-.3-2.9-2.3-.1-7.5,2.1-8.6a24.18,24.18,0,0,0,2.5.3Zm13.7-34.4a8.25,8.25,0,0,1,1,2.6,9.47,9.47,0,0,1,.2,3.4c-.8,4.5-3,6.4-7.2,7.3a9.25,9.25,0,0,1-2.9.2,4.1,4.1,0,0,1-1.1-.1,18.07,18.07,0,0,1-2.7-.6c-3.2-1.3-5.5-4.7-4.5-9.6a7.42,7.42,0,0,1,.7-2.1,7.77,7.77,0,0,1,4.9-4.1,13.64,13.64,0,0,1,1.7-.4c.3,0,.9-.1,1.3-.1,4.3-.2,7,.9,8.6,3.5Zm-8.7-10.4a19.4,19.4,0,0,1,6.7.7c.5.1,1,.1,1.5.2h12.5a6.38,6.38,0,0,1,2,.1c.5.3.3,3.5.3,4.4,0,.4.1,1-.1,1.3s-1.5.3-2.1.3h-5c-.3,0-.5.4-.3.6a6.29,6.29,0,0,1,.9,1.4,15.31,15.31,0,0,1,1.7,4.1,15.11,15.11,0,0,1-1.8,10.4,7.55,7.55,0,0,1-1.1,1.4,17,17,0,0,1-1.9,1.9,19.93,19.93,0,0,1-8.5,3.6,18.41,18.41,0,0,1-3.3.3h-1.3c-1.5-.1-2.6-.1-3.9-.3-.5-.1-1.5-.5-2-.3a2.73,2.73,0,0,0-.9,1.2c-.7,1.1-1.3,2.1-2,3.2-.2.3-.8,1-.6,1.5s2.4.3,3.1.4c3,.1,6,.3,8.9.4,1.8.2,4.8.4,6.6.6,4.4.6,8.6,1.2,10.7,4a11.44,11.44,0,0,1,1.9,4.9V89a11,11,0,0,1-.4,4.1c-1.7,5.4-6.1,7.9-11.7,9.3-1.3.3-2.6.4-4.1.7l-2.9.3h-1.9a5.44,5.44,0,0,1-1.8,0c-.8-.1-1.9,0-2.5-.1-1.2-.2-2.3,0-3.4-.2-4.4-.8-8.6-1.5-10.9-4.4a8.67,8.67,0,0,1,0-11,22,22,0,0,1,2-2.3c.3-.3.8-.5.8-1.1-.3-.5-.9-.7-1.3-1a6.29,6.29,0,0,1-1.9-2.6c-1.2-4,2.1-6.9,3.9-8.7a10.48,10.48,0,0,0,2-2.2.5.5,0,0,0-.1-.7c-.5-.4-1.4-1-1.8-1.3a10.82,10.82,0,0,1-3-4.5,33.74,33.74,0,0,1-.9-3.4,15.23,15.23,0,0,1,.3-6.4,14,14,0,0,1,8.8-10.3,35.67,35.67,0,0,1,5.2-1.4,13.55,13.55,0,0,1,2-.2,10,10,0,0,1,1.6-.2Z" transform="translate(-0.39 0)"/></g><g class="cls-2"><path class="cls-4" d="M145.6,41.3c8.1-.2,11.4,3.9,12.6,10.6.7,3.7.2,9,.3,13v7.3c0,1.6,0,3.4-.1,5-.1,2.2,2.5,1.8,4.1,2.1.7.1,1.5,0,1.7.5a4.1,4.1,0,0,1,.1,1.1c0,.9.2,3.5-.3,3.8a7.38,7.38,0,0,1-2.6.1H147c-.8,0-2.8.2-3.2-.1s-.3-1-.3-1.5a16.58,16.58,0,0,1,.1-3.2c.2-.5.8-.4,1.4-.5,1.2-.2,3.4-.1,3.9-1.1a10,10,0,0,0,.1-2.5V60.4c0-5.1.1-9.2-3.6-10.6-3.3-1.3-8.7,1-10.8,2.2a13.9,13.9,0,0,0-2.7,1.7,20.68,20.68,0,0,0,0,2.5V77.9c.1.3.2.7.4.8.7.5,2.9.5,4,.7.4.1.7,0,.9.1.6.3.4,2.1.4,3.1a6.08,6.08,0,0,1-.1,1.9c-.2.6-3.6.4-4.6.4h-14c-.4,0-1,.1-1.3-.1-.6-.2-.4-2.9-.4-3.9a4.12,4.12,0,0,1,.1-1.2c.2-.3.8-.3,1.2-.3,1-.2,2.8-.1,3.5-.6s.5-1.5.5-2.5v-24a5.18,5.18,0,0,0-.2-2.2c-.4-1-2.8-1.5-3.8-1.9-.5-.2-1.4-.3-1.5-.9,0-.4.1-.7.1-1.1.2-.9.3-3.6,1-3.8a7.23,7.23,0,0,1,2.1-.1h4.6c1,0,4.4-.2,4.9.1s.5,3.4,1,4.2c.6.2,2.9-1.5,3.5-1.8a25.16,25.16,0,0,1,7.7-2.9,25.12,25.12,0,0,0,2.7-.4c.4-.1.7-.1,1-.2Z" transform="translate(-0.39 0)"/></g><g class="cls-2"><path class="cls-4" d="M27.5,41.3a12.08,12.08,0,0,1,7.8,2.3,8.69,8.69,0,0,1,1.6,1.7,7.05,7.05,0,0,0,.7.9l1.1-.7c.7-.4,1.5-.8,2.2-1.2a24.74,24.74,0,0,1,8.2-2.7,15.89,15.89,0,0,1,3.8-.2,22.28,22.28,0,0,1,2.7.3A9.9,9.9,0,0,1,62,46c2,3.2,2.1,7.5,2.1,12.7v14c0,1.5-.4,5.6.6,6a21.59,21.59,0,0,0,3.8.6c.6.1,1.1,0,1.3.4a21.91,21.91,0,0,1,.1,3.7c0,.5,0,1-.2,1.2-.4.3-3.4.1-4.3.1H54c-.9,0-4.2.2-4.6-.1s-.4-3.6-.3-4.4c.3-1.7,4.8-.4,5.5-2.1a8.07,8.07,0,0,0,.1-2.7V59.2c0-3.4-.1-6.5-1.6-8.4-.8-1-1.7-1.1-3.2-1.4a9.48,9.48,0,0,0-1.7,0c-.7.1-1.3.2-1.9.3a21.81,21.81,0,0,0-4.5,1.6,6.75,6.75,0,0,0-2.2,1.4,8.08,8.08,0,0,1,.1,1.6,20.9,20.9,0,0,0,.1,2.5V74.9c0,1-.2,2.6.2,3.3.6,1.1,4.2.6,4.8,1.3a2.34,2.34,0,0,1,.2,1.2c0,.9.2,3.6-.4,3.9a5.7,5.7,0,0,0-1.3.1H29.5c-1,0-4.4.2-4.6-.4a4.68,4.68,0,0,1-.2-1.7c0-.9-.1-2.8.5-3.1.3-.2.6-.1,1-.2,1.6-.3,4,0,4.3-1.6V55.9c0-.4-.1-.8-.1-1.1-.3-1.7-.5-3-1.4-4.1a5.15,5.15,0,0,0-3.6-1.5c-.5.1-1,.1-1.5.2A16.22,16.22,0,0,0,17.2,52a9.51,9.51,0,0,0-2,1.5V74.9c0,.9-.2,2.6.1,3.2.4,1,2.6.9,3.7,1.1.7.1,1.4,0,1.6.7v3.3c0,.4.1,1-.1,1.2-.3.4-3.6.3-4.5.3H5.2c-.9,0-3.8.2-4.3-.1S.6,81.8.6,80.8a4.48,4.48,0,0,1,.1-1.2c.3-.4.9-.3,1.4-.4,1.1-.2,3.2-.2,3.6-1.1a7.75,7.75,0,0,0,.1-2.2v-21c0-1.4.3-4.6-.3-5.4s-2.7-1.2-3.6-1.6c-.4-.1-1.2-.2-1.4-.6s.1-2.3.2-3a5.85,5.85,0,0,1,.4-1.9c.3-.5,1.6-.4,2.4-.4h7.1c.8,0,2.3-.2,2.7.3.2.3.1.6.2,1,.2.9.1,2.7.7,3.2.5-.3,1.4-.8,1.9-1.1A21.75,21.75,0,0,1,20.3,43,28.82,28.82,0,0,1,25,41.5l2.1-.3c-.3.2.1.1.4.1Z" transform="translate(-0.39 0)"/></g></g></g></svg>