<svg xmlns="http://www.w3.org/2000/svg" viewBox="0 0 86.85 99.08">
	<defs>
		<style>
			.cls-1 {
				fill: #3cb393;
			}
		</style>
	</defs>
	<g id="Layer_2" data-name="Layer 2">
		<g id="katman_1" data-name="katman 1">
			<path class="cls-1"
				d="M54.25,56c-2.1-4.6-8.7-5.3-12.1-6.5s-9-4.8-13.5-2.5-12.4,11-17.9,16.2c-8,7.6-6.5,24.1,5,26.2s14.5,3.2,21.9,7.7c11.7,7.1,21.9-6.4,20.4-17.3C57.05,72.3,56.35,60.5,54.25,56Z" />
			<path class="cls-1"
				d="M32.55,38.9a4.84,4.84,0,0,0,1.8.3c10.1-.4,10.4-14.1,10.7-26.2a97.24,97.24,0,0,1,.7-11.5,1.46,1.46,0,0,0-.7-1.3c-.1-.1-.1-.1-.2-.1a1.23,1.23,0,0,0-1.3.2c-17.4,15.2-16.5,28-15.8,31.6S30.25,38.1,32.55,38.9Z" />
			<path class="cls-1"
				d="M9.75,54.4c10.3-4.1,8.2-10.6,6-17.6-1.9-5.8-3.9-12.4-.5-19.9a1.27,1.27,0,0,0-.4-1.5c-.1-.1-.2-.2-.3-.2a1.09,1.09,0,0,0-1.2.2C2.65,24.3-1.25,38,.35,46.9c.8,4,2.6,6.7,5.1,7.6A6.36,6.36,0,0,0,9.75,54.4Z" />
			<path class="cls-1"
				d="M72.05,10.4a1.19,1.19,0,0,0-.8-1c-.1-.1-.1-.1-.2-.1a1.2,1.2,0,0,0-1.3.6,100.05,100.05,0,0,1-6.7,9.4c-7.4,9.6-15.7,20.5-8.1,27.2a3.77,3.77,0,0,0,1.5.9c2.4.8,5.4-.1,8.1-2.5S76.05,33.2,72.05,10.4Z" />
			<path class="cls-1"
				d="M85.35,40a.6.6,0,0,0-.4-.1,1.3,1.3,0,0,0-1.3,1c-2,8-7.7,11.8-12.8,15.2-6.1,4-11.8,7.8-6.4,17.4a6.2,6.2,0,0,0,3.3,2.9c2.6.9,5.7,0,8.7-2.7,6.9-5.9,12.4-19.1,9.7-32.7A1.21,1.21,0,0,0,85.35,40Z" />
		</g>
	</g>
</svg>