<svg xmlns="http://www.w3.org/2000/svg" width="666.667" height="666.667" fill-rule="evenodd" clip-rule="evenodd" image-rendering="optimizeQuality" shape-rendering="geometricPrecision" text-rendering="geometricPrecision" viewBox="0 0 17639 17639" id="access"><path fill="#a13538" d="M3525 12780V4753l6125-1029 1 10152-5941-991c-280-87-69-40-185-105zm6386-909-10-1349c1274 51 3434 167 4229-758l10 1062c-1 1224-3419 1072-4229 1045zm-9-1629V8919c1035-25 3116 183 4119-680 86-67 4-17 119-86-16 1200 331 1615-1317 1989-748 152-2162 253-2921 100zm1254-1568-1244-32-11-1344c1106 29 3065 52 3951-534l149-119c10-9 22-19 32-27 10-9 24-20 33-28 10-9 27-22 35-29 9-7 24-20 36-29 9 505 0 853-4 1111-4 259-313 618-1170 820-523 123-1245 211-1807 211zM9902 7011l1-1760c894-115 4327 0 4220 923-96 829-3350 986-4221 837zm-7856 8568h13547V2059H2073l-27 13520z"></path><path fill="#a13538" d="m6646 7883 315 1322-657-17 342-1305zm-1290 2652 641 41 172-765 935 30 250 795 673 39-1002-3615-724 31-945 3444z"></path><path fill="none" d="m6304 9188 657 17-315-1322z"></path></svg>