<svg xmlns="http://www.w3.org/2000/svg" width="666.667" height="666.667" fill-rule="evenodd" clip-rule="evenodd" image-rendering="optimizeQuality" shape-rendering="geometricPrecision" text-rendering="geometricPrecision" viewBox="0 0 17639 17639" id="excel"><path fill="#1e7145" d="M9596 3634v10265l-6103-1058V4692l6103-1058zm290 1185h4053c224 0 267 44 267 267v7360c0 223-43 267-267 267H9886v-694h1547v-1066H9886v-320h1547V9566H9886v-320h1547V8179H9886v-320h1547V6793H9886v-320h1547V5406H9886v-587zM2083 15593h13474l2-13476H2081l2 13476z"></path><path fill="#1e7145" d="m7129 6861-556 1272-432-1195-695 31 690 1741-777 1703 683 51 548-1225 510 1296 786 43-852-1875 815-1894zM11753 12019h1760v-1066h-1760zM11753 10633h1760V9566h-1760zM11753 9246h1760V8179h-1760zM11753 6473h1760V5406h-1760zM11753 7859h1760V6793h-1760z"></path></svg>