<svg xmlns="http://www.w3.org/2000/svg" width="666.667" height="666.667" fill-rule="evenodd" clip-rule="evenodd" image-rendering="optimizeQuality" shape-rendering="geometricPrecision" text-rendering="geometricPrecision" viewBox="0 0 17639 17639" id="info"><path fill="#693885" d="m3542 4871 6093-1105v10107l-6093-1105V4871zm8982 1867v635l-1970-2-6 3918c0 327 46 388 212 388h476l-1064 1035-294-365 30-5608 2616-1zm-424-741 1012-1070 1105 1070h-776v4234c0 352 17 635-355 635l-2291 3v-638h2011l-12-2517c9-863 14-1296 13-1511l-1-206-209 2-497-2zM2081 15593h13494V2117H2081v13476z"></path><path fill="#693885" d="M5977 6862v4274l790 102-1-4524z"></path></svg>