<svg xmlns="http://www.w3.org/2000/svg" width="666.667" height="666.667" fill-rule="evenodd" clip-rule="evenodd" image-rendering="optimizeQuality" shape-rendering="geometricPrecision" text-rendering="geometricPrecision" viewBox="0 0 17639 17639" id="lync"><path fill="#1e70b6" d="m3565 4880 6105-1105v10107l-6105-1106V4880zm6326 4800c603 166 1005 159 957 515-62 455-711 252-968 107l11-622zm2507 859c90 185 497 447 525 662 30 235-175 594-648 156-492-455-1144-886-1018-1275 152-227 639-167 1120-190 1478-71 1418-1595 475-2000-305-131-617-161-683-274-238-387 183-591 681-418 314 109 582 254 812 425 943 701 768 2310-292 2711-278 106-595 197-972 203zm-773-3372c191 235 101 488-152 535-609 113-476-170-1595 188l32-694c240-109 402-113 669-121-121-137-919-715-405-985 116-61 263-14 411 80 194 124 875 794 1040 997zm-9544 8426h13476V2117H2081v13476z"></path><path fill="#1e70b6" d="M7338 10689v-705l-988-36V7126h-635l1 3235c6 177 67 249 244 258l1378 70z"></path><path fill="none" d="M9880 10302c175 243 646 204 876 112 231-612-152-497-865-734l-11 622z"></path></svg>