<svg xmlns="http://www.w3.org/2000/svg" width="666.667" height="666.667" fill-rule="evenodd" clip-rule="evenodd" image-rendering="optimizeQuality" shape-rendering="geometricPrecision" text-rendering="geometricPrecision" viewBox="0 0 17639 17639" id="ms"><path fill="#38549e" d="m9624 13870-5769-961c-27-4-165-26-180-31-341-116-14 6-173-116V4824l6129-1085-7 10131zm254-4239h988c2 485 2 967 0 1446h-988V9631zm0-2117h1093l953 953v1658l-670-1c0-779 26-881-247-881H9878V7514zm2275-864 660 674-660 635-668-655 668-654zm-1168 406H9878V4868h3986c292 10 295 34 300 335l18 7180c-24 296-25 321-335 326l-3969-9v-1199l1064 1c310 1 322-113 312-354v-600h1093V8520c0-25 30-43 49-60l1059-1149-1267-1367-1203 1112zm-8904 8537h13494V2099H2081v13494z"></path><path fill="#38549e" d="m6531 9686-604-2595-600 35 850 3453 684 32 971-3626-635 49c-52 4-58 74-91 202-69 273-123 559-184 822l-391 1628z"></path></svg>