<svg xmlns="http://www.w3.org/2000/svg" width="666.667" height="666.667" fill-rule="evenodd" clip-rule="evenodd" image-rendering="optimizeQuality" shape-rendering="geometricPrecision" text-rendering="geometricPrecision" viewBox="0 0 17639 17639" id="microsoft"><path fill="#eb3b00" d="m10438 4190-16 9712-7089-982c162-163 368-204 602-297 202-80 360-141 559-220 387-153 788-345 1150-445l1-6624 4793-1144zm-7251 8644s62 72 123 112c68 44 87 46 163 78 114 47 233 85 355 128 245 84 452 167 699 260l4200 1552c1864 654 1327 764 2879 298l2227-652c401-119 576-89 619-278V3306c-81-169-40-114-291-187l-1118-322c-490-139-980-285-1484-435-539-160-977-395-1477-190L3187 4752v8082z"></path></svg>