<svg xmlns="http://www.w3.org/2000/svg" width="666.667" height="666.667" fill-rule="evenodd" clip-rule="evenodd" image-rendering="optimizeQuality" shape-rendering="geometricPrecision" text-rendering="geometricPrecision" viewBox="0 0 17639 17639" id="one-note"><path fill="#7e3878" d="m3422 4758 6137-1030 1 10178-6124-1030-14-8118zm10195 7519v-2188c303-5 471-63 498 261l1 1598c-14 403-128 329-499 329zm0-4622c362-6 492-37 494 318l2 1624c1 297-143 246-496 246V7655zM9807 4868h3034c627 9 628-3 635 459 138 1 282 0 423 0 283 0 318 106 318 317v1482c0 106 0 320-247 320l-491-2-3 5362H9807v-1129h2717v-422l-2717-1 3-635h2714v-423l-2717-1 3-635h2714v-422l-2717-1 3-635h2714v-422l-2717-1 3-635h2714v-420l-2717-4 3-635h2714v-420l-2717-3V4868zM2081 15593h13478l-2-13476H2081v13476z"></path><path fill="#7e3878" d="m6987 9362-610-1115-574-1116-622 9-13 3426 569 20 2-2296 1246 2382 630 16 5-3668-635 36z"></path></svg>