<svg xmlns="http://www.w3.org/2000/svg" width="666.667" height="666.667" fill-rule="evenodd" clip-rule="evenodd" image-rendering="optimizeQuality" shape-rendering="geometricPrecision" text-rendering="geometricPrecision" viewBox="0 0 17639 17639" id="publisher"><g><path fill="#087366" d="M3502 4851c60-91-40-88 353-148l5784-964v10160l-6137-1111V4851zm6389 6095 2262-10v-529l-2262-13v-559l2262-10v-476l-2262-14v-611l2262-10V7073l-2262-13v-674l2937 13v4960c0 970 139 1336-304 1336l-2633-16v-621l2262-11v-529l-2262-13v-559zm3014-4889c-182-128-397-234-567-333-592-343-993-459-943-798 628-50 1772-22 2452-22 286 0 290 25 290 317v4868c0 339-83 312-392 309-212-3-423-4-636-4l-16-3639c2-362 76-513-188-698zM2081 15593h13494l2-13494H2084l-3 13494z"></path><path fill="#087366" d="M6303 7731c492-54 723 39 703 555-18 441-268 525-710 500l7-1055zm-599-598-7 3446 579 27 18-1191c711-66 1388-78 1388-1283 0-1303-1085-1041-1978-999z"></path><path fill="none" d="M6296 8786c442 25 692-59 710-500 20-516-211-609-703-555l-7 1055z"></path></g></svg>