<svg xmlns="http://www.w3.org/2000/svg" width="666.667" height="666.667" fill-rule="evenodd" clip-rule="evenodd" image-rendering="optimizeQuality" shape-rendering="geometricPrecision" text-rendering="geometricPrecision" viewBox="0 0 17639 17639" id="word"><g><path fill="#2b5797" d="m3526 12823 5-8040 6100-1044v10125l-6105-1041zm9610-2714H9872v-632h3264v-421H9872v-631h3264v-421H9872v-632h3264v-421H9872v-632h3264v-421H9872l6-994h3951c212-8 255 34 247 247v7337c3 127-36 236-247 212H9878l-6-1117h3264v-421H9872v-632h3264v-421zM2081 15593h13512l-18-13494H2081v13494z"></path><path fill="#2b5797" d="m7766 6933-483 2594-500-2512-677 39-480 2382-406-2308-598 7 622 3342 628 34 516-2310 275 1171c80 398 161 779 235 1185l710 73 823-3722-665 25z"></path></g></svg>