<svg id="Layer_1" data-name="Layer 1" xmlns="http://www.w3.org/2000/svg" viewBox="0 0 63.84 63.84"><defs><style>.cls-1{fill:#3a3a3b;}.cls-2{fill:#00a9d1;fill-rule:evenodd;}</style></defs><rect class="cls-1" x="1.76" y="1.39" width="60.59" height="61.21"/><path class="cls-2" d="M116.93,138.32v58.85H58.08V138.32Zm2.5-2.49H55.58v63.84h63.85Z" transform="translate(-55.58 -135.83)"/><path class="cls-2" d="M63,167.8a24.45,24.45,0,0,0,24.46,24.46A24.05,24.05,0,0,0,102.63,187L83.47,167.51l-8.21,8.22V155.57h6.11v7l7.22-7h6.83l-8.23,8.22,19.31,19.39A24.46,24.46,0,1,0,63,167.8Zm3.06,0a21.32,21.32,0,0,1,6.11-15v29.9a21.34,21.34,0,0,1-6.11-14.95Zm6.25,15.14,11-11.05,14.34,14.7a21.21,21.21,0,0,1-10.2,2.61,21.44,21.44,0,0,1-15.15-6.26Zm.2-30.43a21.34,21.34,0,0,1,29.9,0h-15l-3.06,3.2v-3.2Zm18.79,11.36,11.3-11.19A21.33,21.33,0,0,1,106,178.55Z" transform="translate(-55.58 -135.83)"/></svg>