<svg xmlns="http://www.w3.org/2000/svg" viewBox="-350 0 599.9 148.1"><defs><style>.cls-1{fill:#e32118;}.cls-2{fill:#fff;}</style></defs><g id="Layer_2" data-name="Layer 2"><g id="layer"><path class="cls-1" d="M0,148.1,107.7,80.4s-51.4,42.1.4,39.1c48.4-2.8,114.1-11.1,200-12.1,95.2-1.1,221.9-.4,291.8,17,.1,0-109.1-11.1-254.4-7.4,0,0-91.2,1.8-197.3,14.3C104.9,136.5,0,148.1,0,148.1"/><polygon class="cls-2" points="144.6 98.1 125.9 98.1 143.2 16.8 114.7 16.8 118.1 0.9 193.8 0.9 190.4 16.8 161.9 16.8 144.6 98.1"/><path class="cls-2" d="M183.1,64.3c-3.9,18.1-3.5,22.2,11,22.2s16.5-4,20.4-22.2c3.9-18.4,3.6-22.5-10.9-22.5S187,45.9,183.1,64.3m47.7-.2c-5.6,26.3-11,34.7-39.4,34.7s-30.2-8.4-24.6-34.7,11-34.9,39.4-34.9,30.3,8.5,24.6,34.9"/><path class="cls-2" d="M286.5,66.1c3.3-15.4,5.6-24.4-9.3-24.4-16.7,0-18.1,8.2-21.5,24.4-3.1,14.5-2.1,20.3,12,20.3,11.3,0,15.2-3.2,18.8-20.3m-26-25.8h.5c6-8.9,14-11,23.6-11,25.3,0,22.7,15.9,18.2,36.8-4.2,20-9.7,32.8-33,32.8-8.3,0-16.6-1.6-18.4-9.8h-.6l-8.2,38.5H226.3L247,30.2h16.3Z"/><path class="cls-2" d="M327,67.1l-1,4.5c-2.4,11.1,2.3,11.9,19.5,11.9,17,0,20-3.1,22.4-14.4,2.9-13.9-4.8-12.1-19.2-12.8-20.7-1.3-37.5-.5-31.5-28.8C322.9.8,339.9,0,363.2,0c19.8,0,35.9.6,30.5,26.2l-.7,3.1H374.3l.7-3.1c2.2-10.5-2-10.9-15-10.9-18.5,0-21.9,1.8-24.1,12.2-2.5,11.9-.2,12.3,18.5,13.5,29.5,1.8,37.4,3.4,32.1,28.1-5.8,27.3-19.3,29.7-44.3,29.7-21.5,0-40.8.6-34.9-27.2l1-4.5Z"/><path class="cls-2" d="M409.4,64.3c-3.9,18.1-3.5,22.2,11,22.2s16.5-4,20.4-22.2c3.9-18.4,3.6-22.5-10.9-22.5s-16.6,4.1-20.5,22.5m47.7-.2c-5.6,26.3-11,34.7-39.4,34.7s-30.2-8.4-24.6-34.7,11-34.9,39.4-34.9,30.2,8.5,24.6,34.9"/><polygon class="cls-2" points="475.5 98.1 459.2 98.1 479.9 0.9 496.2 0.9 475.5 98.1"/><path class="cls-2" d="M520.3,14.8H504L506.9.9h16.3ZM502.6,98.1H486.3l14.5-68h16.3Z"/><path class="cls-2" d="M534.5,62.1c-3.3,15.4-5.6,24.4,9.3,24.4,16.7,0,17.8-8.2,21.2-24.4,3.1-14.5,2.4-20.3-11.7-20.3-11.2-.1-15.1,3.2-18.8,20.3m26,25.7H560c-6,8.9-14,11-23.6,11-25.3,0-22.7-15.9-18.2-36.8,4.2-20,9.7-32.8,33-32.8,8.3,0,16.6,1.6,18.4,9.8h.7L578.4.8h16.3L574,98.1H557.7Z"/></g></g></svg>