<?xml version="1.0" encoding="utf-8"?>
<!-- Generator: Adobe Illustrator 25.4.1, SVG Export Plug-In . SVG Version: 6.00 Build 0)  -->
<svg version="1.1" id="Layer_5" xmlns="http://www.w3.org/2000/svg" xmlns:xlink="http://www.w3.org/1999/xlink" x="0px" y="0px"
	 viewBox="0 0 270 230" style="enable-background:new 0 0 270 230;" xml:space="preserve">
<style type="text/css">
	.st0{fill-rule:evenodd;clip-rule:evenodd;fill:url(#SVGID_1_);}
	.st1{fill-rule:evenodd;clip-rule:evenodd;fill:url(#SVGID_00000159458006562024465110000015499076420477873855_);}
	.st2{fill-rule:evenodd;clip-rule:evenodd;fill:url(#SVGID_00000052793899168539153010000005804433294635839677_);}
	.st3{fill-rule:evenodd;clip-rule:evenodd;fill:#5C85C4;}
</style>
<g>
	<g>
		
			<linearGradient id="SVGID_1_" gradientUnits="userSpaceOnUse" x1="50.9801" y1="948.8843" x2="140.2766" y2="1103.4602" gradientTransform="matrix(1 0 0 1 0 -878)">
			<stop  offset="0" style="stop-color:#5C85C4"/>
			<stop  offset="0.293" style="stop-color:#5C85C4"/>
			<stop  offset="0.3465" style="stop-color:#637FBF"/>
			<stop  offset="0.5274" style="stop-color:#7370B3"/>
			<stop  offset="0.68" style="stop-color:#7B66AC"/>
			<stop  offset="0.785" style="stop-color:#7E62A9"/>
			<stop  offset="0.8442" style="stop-color:#7459A0"/>
			<stop  offset="0.9321" style="stop-color:#695097"/>
			<stop  offset="1" style="stop-color:#654D94"/>
		</linearGradient>
		<path class="st0" d="M15.6,64.9c8.5-8.7,17.4-8.7,23.7-5.5c15.2,8.1,18.3,32.7,19.7,50.3c1.2,14.2,3,26.4,5.3,40.2
			c2.4,15,5.3,42.4,9.5,55c2.6,7.9,7.5,12.4,13.6,15.2c19.9,9.3,65.3,16.4,76.9-8.3c-8.5,8.7-17.4,8.7-23.7,5.5
			c-15.2-8.1-18.3-32.7-19.7-50.3c-1.2-14.2-3-26.4-5.3-40.2c-2.4-15-5.3-42.4-9.5-55c-2.6-7.9-7.5-12.4-13.6-15.2
			C72.6,47.3,27.2,40.2,15.6,64.9z"/>
		
			<linearGradient id="SVGID_00000030465991944356908190000015843943268395857319_" gradientUnits="userSpaceOnUse" x1="23.897" y1="987.0889" x2="47.3782" y2="943.4651" gradientTransform="matrix(1 0 0 1 0 -878)">
			<stop  offset="0" style="stop-color:#5C85C4"/>
			<stop  offset="0.293" style="stop-color:#5C85C4"/>
			<stop  offset="0.3465" style="stop-color:#637FBF"/>
			<stop  offset="0.5274" style="stop-color:#7370B3"/>
			<stop  offset="0.68" style="stop-color:#7B66AC"/>
			<stop  offset="0.785" style="stop-color:#7E62A9"/>
			<stop  offset="0.8442" style="stop-color:#7459A0"/>
			<stop  offset="0.9321" style="stop-color:#695097"/>
			<stop  offset="1" style="stop-color:#654D94"/>
		</linearGradient>
		<path style="fill-rule:evenodd;clip-rule:evenodd;fill:url(#SVGID_00000030465991944356908190000015843943268395857319_);" d="
			M58.6,104.1c-0.8-18.7-5.9-37.3-19.1-44.8c-6.9-4.1-20.1-2.2-23.9,5.7C13,70.6,7.3,95,5.5,100.4c-2.2,7.3,8.3,11.2,11,3.7
			c7.7-22.9,8.9-34.1,19.7-35.9C50.3,66,58.6,83.8,58.6,104.1z"/>
		
			<linearGradient id="SVGID_00000008113539785238936910000002253689765005977473_" gradientUnits="userSpaceOnUse" x1="131.1751" y1="1052.6122" x2="226.3249" y2="878.5822" gradientTransform="matrix(1 0 0 1 0 -878)">
			<stop  offset="0" style="stop-color:#5C85C4"/>
			<stop  offset="0.293" style="stop-color:#5C85C4"/>
			<stop  offset="0.3465" style="stop-color:#637FBF"/>
			<stop  offset="0.5274" style="stop-color:#7370B3"/>
			<stop  offset="0.68" style="stop-color:#7B66AC"/>
			<stop  offset="0.785" style="stop-color:#7E62A9"/>
			<stop  offset="0.8442" style="stop-color:#7459A0"/>
			<stop  offset="0.9321" style="stop-color:#695097"/>
			<stop  offset="1" style="stop-color:#654D94"/>
		</linearGradient>
		<path style="fill-rule:evenodd;clip-rule:evenodd;fill:url(#SVGID_00000008113539785238936910000002253689765005977473_);" d="
			M177.1,60.7l-33.5-5.1L270,1.2c-30.8,63.1-58.6,124.3-93.1,185.8c-1.4,2.4-5.1,3.7-7.9,2.2c-2-1-4.1-3.9-2-7.7l17.4-33.1
			c2.2-4.3,0.8-7.5-1.4-8.7c-2.6-1.6-6.3-0.8-8.7,3.9l-18.1,34.1c-5.5,10.3-14.8,4.3-10.3-4.7c6.7-13.2,13.6-26.6,20.7-39.8
			c4.9-9.3-5.3-14.2-10.3-4.9L143.8,152c-1.4,2.6-4.5,4.5-6.7,4.1c-3.2-0.4-5.5-4.1-3.2-8.5C148.1,118.5,162.7,89.5,177.1,60.7z
			 M131.2,165.4l-3.2,6.5c-1.4,2.8-0.2,6.1,2.6,7.5l0,0c2.8,1.4,6.3,0.2,7.7-2.6l3.2-6.5c1.4-2.8,0.2-6.1-2.6-7.5l0,0
			C136.1,161.3,132.7,162.5,131.2,165.4z M150.5,189.7l-7.7,15.6c-1.4,2.8-0.2,6.1,2.6,7.5l0,0c2.8,1.4,6.3,0.2,7.7-2.6l7.7-15.6
			c1.4-2.8,0.2-6.1-2.6-7.5l0,0C155.4,185.6,151.9,186.9,150.5,189.7z"/>
	</g>
	<path class="st3" d="M22.7,100L17,116.5c-1,3,0.6,6.1,3.4,7.1l0,0c2.8,1,6.3-0.6,7.3-3.4l5.7-16.4c1-3-0.6-6.1-3.4-7.1l0,0
		C27,95.6,23.7,97.2,22.7,100z"/>
	<path class="st3" d="M2.2,116.9l-2,6.9c-0.8,3,0.8,6.1,3.9,7.1l0,0c3,1,6.1-0.8,7.1-3.9l2-6.9c0.8-3-0.8-6.1-3.9-7.1l0,0
		C6.3,112.2,3.3,113.8,2.2,116.9z"/>
</g>
</svg>
