<svg xmlns="http://www.w3.org/2000/svg" viewBox="0 0 2207.43 782.14"><defs><style>.cls-1{fill:#787878;}.cls-2{fill:#b4b4b4;}.cls-3{fill:#a0a0a0;}.cls-4{fill:#5d9fff;}.cls-5{fill:#b27bff;}</style></defs><g id="Layer_2" data-name="Layer 2"><g id="svg2848"><path class="cls-1" d="M141.82,43.35a294.19,294.19,0,0,0-78,69.14,268.31,268.31,0,0,0,34.91-4.68A319.13,319.13,0,0,1,141.82,43.35Z"/><path class="cls-2" d="M242.71,27.53A267.39,267.39,0,0,0,264,1.7a294,294,0,0,0-95.56,27.23A319.21,319.21,0,0,1,242.71,27.53Z"/><path class="cls-1" d="M169.36,82.92,155.49,57.33a298.84,298.84,0,0,0-31.13,44A272.46,272.46,0,0,0,169.36,82.92Z"/><path class="cls-3" d="M172.87,48,186.59,73.3a270.52,270.52,0,0,0,37.28-27.49A299.69,299.69,0,0,0,172.87,48Z"/><path class="cls-2" d="M424.68,29.43A297.72,297.72,0,0,0,289,.08a290,290,0,0,1-22.72,30.68A318.76,318.76,0,0,1,393.36,82.94,424.15,424.15,0,0,0,424.68,29.43Z"/><path class="cls-1" d="M64.53,265.18A318.67,318.67,0,0,1,88.7,129.63a289.36,289.36,0,0,1-39.65,3.19A297.47,297.47,0,0,0,1.86,263.3,423.76,423.76,0,0,0,64.53,265.18Z"/><path class="cls-3" d="M292.07,133.92c12.47-12.47,30.16-20,52.57-22.28,8.18-.85,17.67-1.47,28.6-1.89,2.93-3.6,5.81-7.22,8.61-10.9A298.84,298.84,0,0,0,250.26,48.06,288.67,288.67,0,0,1,196,90.6l63.3,116.82q4.69-2.74,9.29-5.6.52-8.34,1.24-15.33C272.09,164.09,279.59,146.4,292.07,133.92Z"/><path class="cls-1" d="M84.07,263.85A421.54,421.54,0,0,0,242,217L178.76,100.27a289.83,289.83,0,0,1-66.84,24.85A298.53,298.53,0,0,0,84.07,263.85Z"/><path class="cls-2" d="M519.39,110.08c2.5.11,4.92.27,7.3.45a293.94,293.94,0,0,0-84.55-71.9A443.79,443.79,0,0,1,409.19,94.7q8.67,6.87,16.88,14.41h42.24C487.56,109.11,504.74,109.43,519.39,110.08Z"/><path class="cls-1" d="M102.13,401A312.43,312.43,0,0,1,66,284.86,444.26,444.26,0,0,1,.3,282.94,294.17,294.17,0,0,0,32.83,431.37,585.76,585.76,0,0,0,118,427.11Q109.51,414.56,102.13,401Z"/><path class="cls-1" d="M270.62,319.27c-2-14.37-3.06-32.62-3.31-55.56L251.4,234.34A440.7,440.7,0,0,1,85.52,283.47a293.88,293.88,0,0,0,33.9,108.14A298.29,298.29,0,0,0,139.78,424,586.41,586.41,0,0,0,298,374.54c-1.38-1.19-2.73-2.42-4-3.71C281.44,358.33,273.58,341,270.62,319.27Z"/><path class="cls-1" d="M131.15,445.22a606.79,606.79,0,0,1-87.15,6A294.32,294.32,0,0,0,165.41,561.51a726.54,726.54,0,0,0,90.07-21.17A313.62,313.62,0,0,1,131.15,445.22Z"/><path class="cls-1" d="M278.85,510.58c-7.8-12.74-11.59-28.72-11.59-48.86a337.17,337.17,0,0,1,1.35-34,76.75,76.75,0,0,1,4.89-20.89,604.73,604.73,0,0,1-120,34.78A295.24,295.24,0,0,0,284.91,530.7c2.89-1,5.78-2.05,8.66-3.1A68.4,68.4,0,0,1,278.85,510.58Z"/><path class="cls-1" d="M285.42,551.32a746.83,746.83,0,0,1-87.25,23.93,295.25,295.25,0,0,0,225.58-12.34A320.18,320.18,0,0,1,285.42,551.32Z"/><path class="cls-4" d="M539.36,253.33q-16.59,0-23.92-2.84t-10-7.11a15.4,15.4,0,0,1-2.37-9,28.33,28.33,0,0,0-.94-9c-.8-2.85-2.85-5.21-6.16-7.11s-9.4-2.84-18.23-2.84H411.48q-14.21,0-22,.71t-11.37,4.26c-2.37,2.37-3.71,6.09-4,11.13s-.47,12.32-.47,21.79.16,16.81.47,22,1.66,9,4,11.37,6.16,3.71,11.37,4,12.55.48,22,.48h61.57q40.72,0,63.7,2.36t34.1,13.5q11.11,11.13,13.5,34.1t2.37,63.7q0,40.74-2.37,63.7t-13.5,34.1q-11.13,11.15-34.1,13.5t-63.7,2.37H411.48q-28.41,0-49.73-.95t-35.52-6.15q-14.21-5.22-21.31-16.82t-7.11-32.91q0-19.43,1.19-30.79t5.21-17.05a18.43,18.43,0,0,1,11.6-7.34,96.68,96.68,0,0,1,19.89-1.66q16.57,0,23.92,2.84t9.94,7.11a19,19,0,0,1,2.85,9,28.23,28.23,0,0,0,1.89,9q1.65,4.26,7.58,7.1T402,442.77H421q21.32,0,32.92-.47t16.81-4q5.2-3.54,6.16-11.36a195.28,195.28,0,0,0,1-22,188.5,188.5,0,0,0-1-21.78q-1-7.58-6.16-11.13t-16.81-4.27Q442.26,367,421,367h-9.47q-39.32,0-61.81-3.07t-34.1-14.69q-11.61-11.6-14.68-34.1t-3.08-61.8q0-40.72,2.37-63.7t13.5-34.1q11.11-11.13,34.1-13.5t63.7-2.37h56.83q28.43,0,49.73,1t35.52,6.16q14.22,5.21,21.32,16.81t7.1,32.91a260.38,260.38,0,0,1-1.42,30.79q-1.42,11.37-5.68,17.05t-12.79,7.34Q553.55,253.34,539.36,253.33Z"/><path class="cls-4" d="M651.93,227.05q0-24.63,1.06-38.24t7.44-20.2q6.38-6.57,20.19-8.07t39.31-1.48h85q34.85,0,55.25,2.76T891,175q10.41,10.42,13.18,30.82t2.76,55.24v34q0,35.28-2.33,55.46T895,381.12q-7.23,10.41-20.82,13.17t-36.13,2.76q-18.71,0-28.9.86t-14.88,5.52q-4.66,4.68-5.52,15.09t-.85,29.54q0,19.11-1.06,29.53t-7.44,15.09q-6.37,4.68-20.19,5.53t-39.31.85q-25.5,0-39.31-1.06t-20.19-7.45q-6.37-6.36-7.44-20.18t-1.06-39.31Zm187,51q0-19.11-.85-29.54t-5.52-15.08q-4.69-4.67-15.09-5.52t-29.54-.86h-34a121.39,121.39,0,0,0-17.85,1.06c-4.53.72-8,2.28-10.41,4.68s-4,5.88-4.68,10.42a120,120,0,0,0-1.06,17.84v34A120,120,0,0,0,721,312.9c.7,4.54,2.27,8,4.68,10.41s5.88,4,10.41,4.68a119.81,119.81,0,0,0,17.85,1.07h34q19.13,0,29.54-.86t15.09-5.52q4.66-4.67,5.52-15.09T838.93,278.05Z"/><path class="cls-4" d="M957.93,337.55q0-10.62,2.55-17.42a47.53,47.53,0,0,1,6.37-11.9,61,61,0,0,1,8.08-8.92,62.74,62.74,0,0,0,8.07-8.93,47.38,47.38,0,0,0,6.38-11.9q2.54-6.8,2.55-17.43,0-34.83,2.76-55.24T1007.87,175q10.41-10.41,30.59-13.17t55.47-2.76h25.5q34.85,0,55.25,2.76T1205.49,175q10.41,10.42,13.18,30.82t2.76,55.24q0,10.63,2.55,17.43a47.36,47.36,0,0,0,6.37,11.9,62.78,62.78,0,0,0,8.08,8.93,61,61,0,0,1,8.07,8.92,47.55,47.55,0,0,1,6.38,11.9q2.55,6.8,2.55,17.42v93.51q0,23.81-.85,37.4t-5.53,20.4q-4.68,6.79-15.08,8.5t-29.54,1.7q-17.43,0-27-1.49t-14-6.59q-4.46-5.1-5.1-15.3t-.63-27.62V437.85q0-17-.85-26.77c-.58-6.52-2.41-11.47-5.53-14.87s-8.15-5.53-15.08-6.38a344.18,344.18,0,0,0-59.08,0q-10.42,1.28-15.09,6.38t-5.52,14.87q-.85,9.78-.85,26.77v10.21q0,17.43-.64,27.62t-5.1,15.3q-4.45,5.1-14,6.59t-27,1.49q-19.12,0-29.54-1.7t-15.09-8.5q-4.68-6.8-5.52-20.4t-.85-37.4Zm97.75-63.75q0,19.13.85,29.54t5.52,15.09q4.67,4.68,15.09,5.52t29.53.86q19.14,0,29.55-.86t15.08-5.52c3.12-3.12,5-8.14,5.53-15.09s.85-16.79.85-29.54-.29-22.59-.85-29.53-2.41-12-5.53-15.09-8.15-5-15.08-5.53-16.79-.84-29.55-.84-22.59.28-29.53.84-12,2.41-15.09,5.53-5,8.15-5.52,15.09S1055.68,261.05,1055.68,273.8Z"/><path class="cls-4" d="M1531.68,261.05q-14.9,0-21.47-2.55t-8.92-6.37a13.87,13.87,0,0,1-2.13-8.08,25.25,25.25,0,0,0-.85-8.07q-1.07-3.82-5.53-6.38t-16.35-2.55h-59.51q-12.75,0-19.76.64t-10.2,3.83q-3.2,3.18-3.61,10t-.42,19.54q0,12.76.42,19.77c.28,4.67,1.48,8.08,3.61,10.2s5.53,3.33,10.2,3.61,11.26.43,19.76.43h55.26q36.54,0,57.16,2.12t30.59,12.11q10,10,12.12,30.6t2.12,57.16q0,36.57-2.12,57.17t-12.12,30.6q-10,10-30.59,12.11t-57.16,2.13h-55.26q-25.5,0-44.62-.85t-31.88-5.53q-12.75-4.67-19.12-15.09t-6.38-29.53q0-17.43,1.07-27.63t4.67-15.3a16.58,16.58,0,0,1,10.41-6.59,87.24,87.24,0,0,1,17.85-1.49q14.88,0,21.47,2.56t8.92,6.37a17,17,0,0,1,2.55,8.07,25.66,25.66,0,0,0,1.7,8.08q1.49,3.83,6.8,6.37t18.06,2.56h17q19.11,0,29.53-.43t15.09-3.61c3.11-2.13,5-5.52,5.52-10.2a173.71,173.71,0,0,0,.86-19.77,167.74,167.74,0,0,0-.86-19.54c-.57-4.53-2.41-7.87-5.52-10s-8.15-3.4-15.09-3.83-16.79-.64-29.53-.64h-8.51q-35.26,0-55.46-2.76t-30.6-13.17q-10.42-10.41-13.18-30.6t-2.76-55.47q0-36.54,2.13-57.16t12.11-30.6q10-10,30.6-12.11t57.16-2.12h51q25.5,0,44.63.84t31.87,5.53q12.76,4.68,19.13,15.09t6.37,29.53a234.33,234.33,0,0,1-1.27,27.63q-1.28,10.2-5.1,15.3t-11.48,6.59A111.5,111.5,0,0,1,1531.68,261.05Z"/><path class="cls-4" d="M1799.43,159.06q34.85,0,55.25,2.76T1885.49,175q10.41,10.42,13.17,30.82t2.77,55.24v136q0,35.29-2.77,55.47t-13.17,30.6q-10.42,10.41-30.81,13.17t-55.25,2.77h-59.51q-35.26,0-55.46-2.77t-30.6-13.17q-10.41-10.41-13.18-30.6t-2.76-55.47v-136q0-34.83,2.76-55.24T1653.86,175q10.41-10.41,30.6-13.17t55.46-2.76Zm-93.5,110.5q0,10.62,2.54,16.78a33,33,0,0,0,6.38,10.2,51.56,51.56,0,0,0,8.08,7,53.68,53.68,0,0,1,8.07,7,33,33,0,0,1,6.38,10.2q2.55,6.17,2.54,16.78v42.5q0,19.14.64,29.54t5.1,15.09q4.46,4.68,14,5.53t27,.85q17.43,0,27-.85t14-5.53q4.45-4.68,5.1-15.09t.63-29.54v-102q0-19.11-.84-29.54t-5.53-15.08q-4.68-4.67-15.09-5.52t-29.53-.86h-25.08a214.69,214.69,0,0,0-26.14,1.28q-10,1.28-15.72,5.74t-7.66,12.74Q1705.93,255.11,1705.93,269.56Z"/><path class="cls-4" d="M2037.43,329.06q0,15.72.21,24.43t1.91,13.39a15.94,15.94,0,0,0,5.32,7.44,66,66,0,0,0,10.41,6.16,188.2,188.2,0,0,0,17.42,8.5,40.8,40.8,0,0,0,15.73,3,40.38,40.38,0,0,0,15.94-3q7-3,17.21-8.5a67,67,0,0,0,10.41-6.16,16,16,0,0,0,5.31-7.44q1.69-4.68,1.92-13.39t.21-24.43V201.55q0-12.75.42-21t3.62-13.18q3.18-4.87,10.19-6.58t19.77-1.7q12.75,0,19.55,1.9t10,6.59c2.12,3.13,3.4,7.44,3.82,13s.64,12.53.64,21V346.06q0,24.65-.43,38.24c-.28,9.08-1.35,16.15-3.19,21.26a22.64,22.64,0,0,1-8.92,11.68,173.08,173.08,0,0,1-17.21,9.56q-14.88,7.24-19.34,17.43t-4.46,29.32q0,8.08-2.12,13c-1.43,3.26-4.47,5.81-9.15,7.65s-11.33,3.12-20,3.83-20,1.06-34.21,1.06-25.57-.36-34.21-1.06-15.3-2-20-3.83-7.72-4.39-9.14-7.65-2.12-7.58-2.12-13q0-19.12-4.46-29.11t-19.34-17.64a172.27,172.27,0,0,1-17.22-9.56,22.64,22.64,0,0,1-8.92-11.68c-1.84-5.11-2.91-12.18-3.19-21.26s-.42-21.81-.42-38.24V201.55q0-12.75.42-21c.28-5.53,1.49-9.84,3.62-13s5.52-5.31,10.19-6.59,11.27-1.9,19.76-1.9,15,.57,19.56,1.7,7.86,3.33,10,6.58,3.39,7.65,3.82,13.18.64,12.53.64,21Z"/><path class="cls-5" d="M1612.43,782.14q-14.28,0-22-.6t-11.3-4.16q-3.57-3.57-4.17-11.31t-.59-22q0-14.28.59-22t4.17-11.3c2.38-2.39,6.14-3.77,11.3-4.17s12.5-.59,22-.59,16.85.2,22,.59,8.93,1.78,11.31,4.17,3.76,6.14,4.17,11.3.59,12.5.59,22-.2,16.86-.59,22-1.79,8.93-4.17,11.31-6.15,3.77-11.31,4.16S1622,782.14,1612.43,782.14Z"/><path class="cls-5" d="M1909.93,544.14q25.59,0,40,1.48t21.43,8.19q7,6.69,8.47,20.52t1.49,38.23a41.16,41.16,0,0,0,1.79,13.39,29.83,29.83,0,0,0,4.46,8.48,47.34,47.34,0,0,0,5.65,6.09,63.55,63.55,0,0,1,5.66,5.81,26.53,26.53,0,0,1,4.46,7.73,34.24,34.24,0,0,1,1.78,12.05v68.43q0,15.76-.6,25.14T2000.67,774c-2.18,3.28-5.71,5.46-10.56,6.55s-11.76,1.64-20.68,1.64-15.82-.55-20.68-1.64-8.38-3.27-10.56-6.55-3.47-8-3.86-14.27-.6-14.63-.6-25.14v-113a103,103,0,0,0-1.19-17.56q-1.18-6.54-4-10a12.44,12.44,0,0,0-7.44-4.32,60.28,60.28,0,0,0-11.16-.89,71,71,0,0,0-12.5.89,11.23,11.23,0,0,0-7.28,4.32q-2.54,3.42-3.28,10a165,165,0,0,0-.74,17.56v130.9q0,8.93-.45,14.72a18.57,18.57,0,0,1-2.67,9.08,12,12,0,0,1-7,4.61q-4.77,1.34-13.69,1.34a55.37,55.37,0,0,1-13.83-1.34,12,12,0,0,1-7.14-4.61c-1.49-2.18-2.34-5.21-2.53-9.08s-.3-8.77-.3-14.72V621.49a165,165,0,0,0-.74-17.56q-.75-6.54-3.28-10a11.26,11.26,0,0,0-7.28-4.32,71,71,0,0,0-12.5-.89,59.77,59.77,0,0,0-11.31.89,12.31,12.31,0,0,0-7.28,4.32q-2.84,3.42-4,10a103,103,0,0,0-1.19,17.56v130.9q0,8.93-.45,14.72t-2.67,9.08a12,12,0,0,1-7,4.61q-4.77,1.34-13.69,1.34a55.37,55.37,0,0,1-13.83-1.34,12,12,0,0,1-7.14-4.61c-1.49-2.18-2.34-5.21-2.53-9.08s-.3-8.77-.3-14.72V618.51q0-17.85.3-30.35a94.37,94.37,0,0,1,2.38-20.67q2.07-8.18,6.24-12.94t12.2-7a95.18,95.18,0,0,1,20.23-2.82q12.19-.6,30-.59Z"/><path class="cls-5" d="M2040.83,663.14q0-7.44,1.78-11.75a23.08,23.08,0,0,1,4.47-7.15,37.28,37.28,0,0,1,5.65-4.9,36.81,36.81,0,0,0,5.65-4.91,23,23,0,0,0,4.47-7.14q1.77-4.31,1.78-11.76,0-24.37,1.93-38.67t9.23-21.57q7.29-7.27,21.42-9.22t38.82-1.93h41.65q8.93,0,14.73.44c3.87.3,6.88,1.19,9.07,2.68a12,12,0,0,1,4.61,7q1.35,4.75,1.34,13.69c0,5.94-.44,10.56-1.34,13.83a12.08,12.08,0,0,1-4.61,7.14c-2.19,1.49-5.2,2.33-9.07,2.53s-8.78.3-14.73.3h-29.75q-13.38,0-20.67.44t-10.57,2.68a9.35,9.35,0,0,0-3.86,7,117.46,117.46,0,0,0-.6,13.68,121.45,121.45,0,0,0,.6,13.84q.59,4.9,3.86,7.14t10.57,2.53q7.27.3,20.67.3h29.75q8.93,0,14.73.44c3.87.3,6.88,1.19,9.07,2.68a12.08,12.08,0,0,1,4.61,7.14q1.35,4.9,1.34,13.84c0,5.94-.44,10.51-1.34,13.68a12,12,0,0,1-4.61,7c-2.19,1.49-5.2,2.33-9.07,2.53s-8.78.3-14.73.3h-29.75q-13.38,0-20.67.44t-10.57,2.68a9.35,9.35,0,0,0-3.86,7,117.54,117.54,0,0,0-.6,13.69,121.37,121.37,0,0,0,.6,13.83q.59,4.9,3.86,7.14t10.57,2.53q7.27.3,20.67.3h29.75q8.93,0,14.73.44c3.87.3,6.88,1.19,9.07,2.68a12.08,12.08,0,0,1,4.61,7.14q1.35,4.91,1.34,13.83t-1.34,13.69a12,12,0,0,1-4.61,7c-2.19,1.49-5.2,2.33-9.07,2.53s-8.78.3-14.73.3h-65.45q-24.7,0-38.82-1.94T2052,771q-7.29-7.29-9.22-21.42t-1.93-38.82Z"/></g></g></svg>